<?xml version="1.0" encoding="utf-8"?>
<!-- Generator: Adobe Illustrator 14.0.0, SVG Export Plug-In . SVG Version: 6.00 Build 43363)  -->
<!DOCTYPE svg PUBLIC "-//W3C//DTD SVG 1.1//EN" "http://www.w3.org/Graphics/SVG/1.1/DTD/svg11.dtd">
<svg version="1.1" xmlns="http://www.w3.org/2000/svg" xmlns:xlink="http://www.w3.org/1999/xlink" x="0px" y="0px"
	 width="1190.55px" height="841.89px" viewBox="0 0 1190.55 841.89" enable-background="new 0 0 1190.55 841.89"
	 xml:space="preserve">
<g id="Layer_1">
	<g id="District_Outline">
		<path id="Southern" fill="#FFFFFF" stroke="#000000" stroke-width="1.0331" d="M233.744,557.808l-1.263-0.23l-0.918-1.148
			l-1.148-1.607l-1.493,0.23l-0.918-2.754l0.344-5.281l-0.459-3.902l-0.918-1.951l-1.148-1.723l0.229-3.443l-1.377-1.262
			l-0.918-1.836l0.689-2.066l-0.574-2.297l1.262-1.264l1.377-0.229l1.837,2.295l1.722,0.574l0.804-1.721l1.951-0.803l2.64-0.117
			h1.377l1.722,0.574l0.344-2.869l-0.918-1.721l0.459-1.494l1.377,0.23l1.262,0.918l1.378,1.262l1.033-1.031l1.607,0.688l2.64,0.344
			l1.951,0.805l0.459-2.066l-1.377-1.033l-1.951-0.459l-1.263-1.262l-1.377-0.461l1.722-1.836l2.525-1.146l2.181,0.916l1.951-0.803
			l1.837,1.953l2.755,2.982l2.525-2.523l1.722-1.033l-0.458-2.527l1.606-1.605l1.607,0.23l-0.114-1.838l4.247-0.574l0.804-1.951
			l0.918-1.146l0.883,0.881v1.451h1.988l0.801,1.119h1.599l1.04-1.041h2.959l2.681-2.678l0.839-2.76h3.28l1.599-1.441l1.68,0.32
			l0.4,1.281l1.76,0.959h2.32l-0.159,2l0.72,2.721l2.559,0.32l1.52,0.799v1.361l2.32-0.082l2.72,2.641l0.32,3.199l-2.08,2
			l1.52,1.439l0.839-0.84l1.64,0.602l0.48,2.318l1.079,1.08h1.64l0.321,1.719l1.399,1.4l0.083,2.301l-0.804,1.838l-1.492,1.09
			h-2.238l-1.78,1.779l-1.492,1.492v2.064l-1.952,0.805l-2.065-0.115l-1.492,1.494l-1.838,1.264l0.746,2.238l1.665,1.666
			l-0.689,2.982l-1.492,1.494l1.492,0.916l2.182,2.066l1.377,1.379l-0.573,2.984l0.631,3.902v3.156l-1.206,1.205l-1.148-1.262
			l-1.722-0.229l0.229,2.064l0.976,2.01l1.435,1.436l-1.148,1.146l-1.951,0.23h-1.607h-1.262h-1.033c0,0-1.377,0.172-2.468,0.172
			c-1.09,0-0.861-0.861-0.861-0.861l-1.722-0.459l-0.803-0.805l-2.066-0.346v1.607l-1.607,0.688l-1.952,2.295h-2.181l-2.411,0.689
			l-1.406-0.373l-1.176,1.178v1.895l1.205,1.205l0.689,2.18l-0.575,2.182l-0.517,2.01l-1.319,1.318v0.803l-1.148,1.033l-2.526,4.133
			v3.215l0.689,3.902l-0.459,2.984l0.229,3.674l-2.755,1.262l-1.837-0.803l-2.64,0.918l-2.526-0.574l-0.344-2.182l-1.262-3.787
			l-0.229-2.756l-1.837-1.262v-1.492l-0.918-2.41l-1.607-2.066l1.033-1.723l0.689-1.949l-1.722-1.838l-0.574-2.066l-1.951-0.229
			l-0.402-1.205l-1.435-1.436l-2.525-0.344l-1.607-1.607l-0.459-3.674l-1.607-1.492l0.459-2.295l-1.952-1.607l-1.033-2.639
			l-1.722-0.805l-2.525-1.723l-0.804-2.754l-1.722-2.641L233.744,557.808z"/>
		<path id="Central" fill="#FFFFFF" stroke="#000000" stroke-width="1.0331" d="M263.015,450.138l0.574-2.297l0.689-2.525
			l-1.722-1.721l1.148-0.805l-0.115-1.951l0.689-2.754l1.262-2.984l0.919-2.525l2.295-0.689l0.804-1.723l2.181-1.836l1.952-0.172
			l1.55,1.893l0.688-1.951h1.607l0.689-1.205l0.631-1.377l0.229-2.41l1.033-1.033l0.174-1.435l1.779-1.492l0.689,1.492l1.04,1.039
			h2.004l1.002,1.001l1.745-0.111l1.336,0.816h2.45l1.299,1.299l1.596,0.188l0.965-0.965h1.93l1.225-1.227h1.521l1.262,0.631
			c0,0,0.594,0.928,0.928,0.928c0.334,0,0.409,1.672,0.409,1.672h1.633l1.114,1.334h1.485l0.296-0.963l0.965,0.963
			c0,0,1.559,0.744,1.856,0.744s1.633,0.742,1.633,0.742l1.039,0.594l1.336,0.52l1.856-0.371l1.633,0.52l-0.594,1.93l0,2.303
			l1.415-0.258l2.114-0.201l1.208,1.207l2.869,1.965l1.107-1.107l2.164,2.162v4.531l2.719,2.719l2.517-1.107l2.819-0.705
			l2.518,1.107l2.315-1.107l1.51,3.223l2.97,0.555l2.266,2.264l0.805,2.215l4.229,2.215l1.561,2.266l1.057-1.057l2.517,0.604
			l1.409-2.215l2.668,2.365l-1.359,1.561l-0.403,5.438h-3.222l-1.359,1.459l-1.158-1.158l-2.769,0.957l-1.787,1.787l-0.78-0.781
			h-2.164l-1.259-1.258l-0.805-1.912h-2.014l-1.309,1.309l-3.523,0.906l-2.718-0.604h-2.315l-0.906,2.314h-2.316l-1.611-1.609
			l-1.308,1.309l-0.604,2.416l-1.46,1.459l-2.97,0.354l-2.517,0.805l-2.316,0.404l-1.409,1.41l-1.912,0.4l-1.301,1.311v2.096
			l1.107,0.758l0.757,0.756v1.107l0.407,1.047l-1.106,1.107l-1.396,0.35l-0.699,0.697l-1.077,1.078h-1.31v0.9l-1.019,1.02
			l-1.31,0.902l-1.106-0.523l-1.31,1.486l-1.077,1.076l0.408,1.805l-0.408,3.027l0.932,1.688l-0.233,3.609h-1.921l-0.641,1.164
			l-2.271,1.398l-2.008,1.076l-1.135,1.135l-1.106,0.061l-1.616,0.73l0.919,2.359l-0.839,0.84h-2.32l-1.76-0.959l-0.4-1.281
			l-1.68-0.32l-1.599,1.441h-3.28l-0.839,2.76l-2.681,2.678h-2.959l-1.04,1.041h-1.599l-0.801-1.119h-1.988v-1.451l-0.883-0.881
			l-1.951-0.92v-2.41l-1.502-1.691l-0.334-0.375l-0.689-2.641l-1.722-1.033l-1.836-2.064l0.689-2.41l-0.689-3.561l-2.181-1.605
			l-2.525-1.951l-0.803-2.641l-1.722-1.377l-0.574-1.607l1.492-1.721l1.148-2.527v-2.41l-1.263-2.295l-1.263-1.951l1.148-0.918
			l0.688-1.723h1.377l1.033-0.918l0.803-3.1l0.23-1.836l-0.919-2.297l-1.262-1.262l-1.722-0.229l-1.262-1.379l-1.033-1.492
			l-1.55,1.32l-1.205-1.205l-1.033-1.721l1.033-1.838l2.181-2.182l1.492-1.721l0.574-2.066l1.722-0.115l1.263,1.379l0.689,1.721
			l2.295,0.803L263.015,450.138z"/>
		<path id="Volga" fill="#FFFFFF" stroke="#000000" stroke-width="1.0331" d="M380.674,551.329h1.863h2.213l1.339-0.523l1.863,0.814
			h1.165l0.815,1.455l-0.582,1.457l-2.154,1.047l0.175,1.455h1.223l0.344,1.807l0.746,1.664l1.608,1.607l1.09,1.088l0.459,1.953
			l1.607,1.607l-1.607,2.18l-1.492,1.492h-2.526l-2.583,0.172l-1.32-1.318L384,567.419h-1.176l-1.234,1.236h-2.008l-2.238-2.238
			l-0.431-1.293l-1.693-1.693v-2.926l-1.435-1.436h-2.64l-2.181,0.805l-0.804-1.723l-2.181-1.723l-1.952-1.033l-2.64,1.264
			l-2.41,0.344l-1.951-0.574l-1.377-2.641l-1.952-1.721l-1.377,2.297h-1.492v-1.838l1.377-1.377l-0.918-1.951l-1.147-2.984
			l-0.459-3.1l-1.722-2.066l-2.755-1.033l-0.803-1.951l-1.493-1.492l-2.755,0.459h-1.607v-2.182l-0.803-2.295l-2.813-0.518
			l-1.435,1.436l-2.64,0.918l-2.296-1.262h-2.411L325,534.849h-2.411h-2.641l-0.574,1.264l-1.492,1.492l-0.229,2.18l-2.812-0.516
			l-1.665-1.664v-2.297l0.747-2.238l-1.206-1.205h-1.951l-0.083-2.301l-1.399-1.4l-0.321-1.719h-1.64l-1.079-1.08l-0.48-2.318
			l-1.64-0.602l-0.839,0.84l-1.52-1.439l2.08-2l-0.32-3.199l-2.72-2.641l-2.32,0.082v-1.361l-1.52-0.799l-2.559-0.32l-0.72-2.721
			l0.159-2l0.839-0.84l-0.919-2.359l1.616-0.73l1.106-0.061l1.135-1.135l2.008-1.076l2.271-1.398l0.641-1.164h1.921l0.233-3.609
			l-0.932-1.688l0.408-3.027l-0.408-1.805l2.387-2.562l1.106,0.523l1.31-0.902l1.019-1.02v-0.9h1.31l1.776-1.775l1.396-0.35
			l1.106-1.107l-0.407-1.047v-1.107l-1.864-1.514v-2.096l1.301-1.311l1.912-0.4l1.409-1.41l2.316-0.404l2.517-0.805l2.97-0.354
			l1.46-1.459l0.604-2.416l1.308-1.309l1.611,1.609h2.316l0.906-2.314h2.315l2.718,0.604l3.523-0.906l1.309-1.309h2.014l0.805,1.912
			l1.259,1.258h2.164l0.78,0.781l1.787-1.787l2.769-0.957l1.158,1.158l1.359-1.459h3.222l0.403-5.438l1.359-1.561l0.755-0.754
			v-2.115l1.61-0.805l-2.517-2.619l1.208-1.105l2.174,0.965l4.083-4.082l1.234-1.062l0.861,0.287l2.181,2.582l-0.402,1.264
			l1.033,0.518l0.213,1.744l-1.41,1.41v2.314l-2.215,0.504v1.51l-1.51,1.51v1.711l1.208,1.209v1.711l0.503,1.812l-0.705,1.611
			l0.805,0.805l1.309-1.611l0.806-2.314l2.014-0.504l2.114,1.008l1.309,1.309l1.812-1.711l0.957,0.955l0.554,1.258l1.711-0.199
			l1.057-1.059h1.863l1.753-0.691v-1.379l-1.162-1.162l1.076-2.109l2.325,1.293l0.818-0.818l0.818,0.818l1.119-1.119l1.463,0.516
			l0.603,0.947l-0.258,1.463l1.206,1.465l1.463-0.518l2.497,1.119l1.636,1.637l1.808-0.947l2.066,0.773l1.163-1.162l1.162,0.389
			l0.818,0.816l1.162-0.387l0.688-1.463h1.206l2.668,1.807l2.583,1.379l2.927,1.119l3.961,0.602v1.809l-2.325,1.205v2.324
			l-1.291,3.186l-2.325,2.066l-1.722,2.582l-1.549,1.551h-1.98l-1.894,1.635v2.928l1.464,2.324l-0.775,2.582l-1.162,1.162v0.818
			l1.248,1.291l-1.42,1.42l-1.421,1.162l-1.98-0.43l-2.066,1.377l0.086,1.119l0.904,0.904l-1.249,1.248l-0.861,0.861l-1.377-2.066
			h-1.55l-1.205,1.979l-0.517,2.152l-1.894,0.947h-2.238l-0.689-0.688l-0.774,1.549v1.98l-0.904,0.904l-1.504,1.664l1.475,2.041
			l2.665,1.928h1.644l1.359,1.982l1.458-1.457l0.465,1.92l-0.523,1.746l-1.398,2.562v1.396l-2.591,0.611l-1.543,1.543l-2.387-0.873
			v-1.572l-1.281-1.279l-1.863-0.934l-1.747-0.523l-2.504,1.863l0.466,2.213l1.106,1.105l0.349,3.086l1.456,2.33l2.853,0.289
			l1.222-0.814l2.795,0.875l0.815,2.502v2.213h-1.339l-0.815-1.107l-1.921,0.174v0.816l-1.776,0.609l-2.358,2.359v1.281
			l-1.514,2.037v1.98h-1.223l-1.572,2.852l-0.291,1.689l-1.805,0.814L380.674,551.329z"/>
		<path id="Urals" fill="#FFFFFF" stroke="#000000" stroke-width="1.0331" d="M413.386,544.606l3.903-0.115l2.64,0.803h1.951
			l2.181,1.148l2.296-0.459l1.32-1.32h1.205l2.984,1.551h3.1l2.525-0.459l2.066,1.146l2.525-0.688h2.869l1.378-1.953l2.525,0.23
			l2.295,1.377h2.87l1.033,2.066h2.066v-1.377l0.646-1.334l1.162-1.162v-1.551l0.947-0.172l1.205-1.205l0.474-1.205v-2.023
			l1.636-1.637l1.248-1.248l2.195-0.387l0.818-0.818v-1.549l-1.723-0.947l-0.56-1.334l-1.076-1.076l-1.55-0.775v-1.291l1.809-0.861
			l-0.775-2.324l0.173-1.809l1.377-1.377l1.033-1.721l1.722-1.207l1.809,1.809l-1.119,1.119v1.377l1.549,0.518l1.98,0.602
			l1.291,0.604l1.464,0.947h1.894l1.206-1.119l1.979,1.033l1.722,0.516h2.755l2.281-1.076l1.852-1.852l1.033-1.465l3.254-1.902
			l0.354-2.402l3.11-2.264l3.816-1.059l-0.212-3.605l1.343-3.322l1.343-2.688l3.676-0.564l2.757,1.201h3.959l0.99,1.486l3.676,0.422
			l2.863-1.094l2.65,2.65l2.191-0.566l3.04,1.557l0.848-2.826l4.525-1.91l4.24,3.111l2.616-2.615l4.1-1.768l1.696-2.828
			l-3.252-1.414l-2.897-1.906l-0.013-3.527l2.723-2.697l0.976-0.977l0.172-2.582l1.665-1.664v-2.869l-1.722-2.41l1.147-2.182
			l1.665-2.125l1.55-1.549l-0.804-1.836l0.459-2.41l-0.459-2.756l-1.32,1.32l-1.32-1.32l-2.64-0.574l-0.574-2.41l1.148-1.148
			l-0.229-2.641l-1.033-2.066l-1.377-1.377h-1.378l-1.263-2.295l1.033-0.805v-2.066l-0.804-1.377v-1.146l1.55-1.436l-0.976-2.008
			l-2.525-1.494v-1.605l-1.033-1.033l0.976-1.723l-0.373-2.096l-1.119-1.119l0.057-1.836l1.607,0.344l0.43-1.406l1.234-1.234
			l0.746-2.18l-0.918-1.723h0.86l0.632-1.664l-1.09-2.641v-1.779l-1.779-0.344l0.058-2.238l-1.378,1.32l-0.688-0.688l-1.378,1.205
			l-0.745-0.746l-0.288-1.492l-2.181-0.345l-1.435-1.435l-0.315-1.233l-1.004-1.005l-0.115-2.123l2.095-1.578l1.693-1.693
			l0.86-1.378h2.296v-3.96l0.229-2.755l-2.468-1.377l-0.66-1.349l-0.545,0.545l-0.718-1.521l0.603-0.603l0.976-0.976l2.182-0.345
			l-0.229-1.205l1.09-1.09l-0.401-1.493l-1.606-0.86l-1.55-0.401l-0.861-0.861l-0.459-1.263h-1.09l-0.115-1.377l-1.32,1.32
			l0.172,1.32l0.459,1.491l-1.377,1.264l-1.837-1.837l-1.148-1.148l-2.41,1.607l0.804,2.525l1.722,1.722v0.919l2.066,1.032
			l1.32,1.32l0.746,1.779v1.378l-1.951-1.838l-1.779-1.779l-1.779,1.091l-1.377-1.147l-2.411-1.836v-2.066v-2.871l2.066-2.065
			l0.46-2.984v-3.329l0.573-2.41h-1.837l-0.804,1.722l0.804,1.952l-0.918,2.41l-1.377,2.181h-2.411l-2.87,2.87l-1.837,1.837
			l1.665,1.663l-0.287,2.354l0.688,2.182l0.804,2.524l-2.295,2.297l-1.033,2.983l-1.607,2.526l0.345,3.672l-1.377,1.378l0.344,2.182
			h2.066l0.918,1.262l1.722-0.803l1.32-1.32l1.606,1.607l2.812,0.976l0.918,0.918l1.492,1.377l1.148,2.295l-0.804,1.836l0.688,2.184
			l-0.688,1.49l-1.837,0.574l0.229,2.066v1.379l0.976,0.975l2.583,0.746v1.605l-2.64-0.572l-2.296-2.297v-1.721l-0.114-2.756
			l1.836-1.836l-1.377-3.559l-1.091-1.09l-0.745-2.239l-2.641,0.345h-2.41l-1.55,1.55l-1.55,1.549l0.229,2.182l0.574,2.41
			l-0.689,2.754l-1.435,1.436l-1.778,1.779l-1.033,1.033v2.41l-2.296,1.262l-2.87,0.805l-0.688,0.689h-1.492
			c0,0-1.665,0.746-1.205,1.205c0.459,0.459-0.402,2.008-0.402,2.008h-2.065l-1.378-1.951l-1.951,0.115l-2.295-1.607l-1.723-0.803
			l-1.722-2.641v-2.182l1.722,0.574l1.206,1.205l1.894,1.205l1.722-1.146l2.87,0.572l1.606-0.918l1.723-2.525l2.983-2.984
			l2.526-0.688l0.459-4.248l2.525-1.951l0.345-1.836l-2.009-2.009l-0.861-3.042l0.918-2.181l1.263-4.362l0.804-4.936l2.296-3.444
			l0.573-3.099l0.688-3.903l-1.951-1.722l0.918-2.984l3.271-3.271l0.517-4.189l1.148-1.148l-1.033-3.902h-2.41l-1.378-1.378h-2.755
			l-1.377-1.951l-2.182,1.148l-1.263,2.755l-1.147,2.755l-1.493,3.328l-1.951,1.951l-0.86,0.861l-2.468,1.205l-2.296,0.804
			l-1.262,1.607l-0.804,2.296l1.492,0.459v1.722l-1.033,1.377l-0.574,2.755v1.837l-2.295,1.148l-1.091,1.09l1.206,2.468l2.181,1.492
			l-0.459,3.215l1.263,2.984l1.836,0.573l-2.64,2.411v2.41l-2.296,1.378l-1.606-2.525v-2.296l-1.951-2.64l-1.837-2.87l-2.697-2.698
			l-0.9-1.836l-0.936,1.378l-1.809,1.808l1.119,1.062l0.229,0.861l0.861,0.287v3.903h-1.091l-0.517,1.262l-0.918,0.46l-0.172,1.263
			l-0.175,0.859l2.295,1.148v1.492l-2.123,0.862l1.779,1.779l-2.755,1.377l-2.066,2.066h-2.181l-0.805,2.525h-3.902l-3.673,0.803
			l-3.673,2.066v2.525l-3.01-0.115l-2.233,0.344l-1.205,1.379l-2.152,1.119l-2.152,2.152l-1.98,0.258v-1.809l-1.463-0.516
			l-1.766,1.766l-2.368,2.367l-1.032,1.98l0.43,2.496l-2.755,1.723l-0.258,2.064l-2.324,1.465l-1.55,2.926l0.431,1.98l-0.947,1.809
			v1.549l-2.841,2.842l-0.389,2.023l-1.076,1.076l-0.603,1.635v1.809l-2.325,1.205v2.324l-1.291,3.186l-2.325,2.066l-1.722,2.582
			l-1.549,1.551h-1.98l-1.894,1.635v2.928l1.464,2.324l-0.775,2.582l-1.162,1.162v0.818l1.248,1.291l-1.42,1.42l-1.421,1.162
			l-1.98-0.43l-2.066,1.377l0.086,1.119l0.904,0.904l-1.249,1.248l-0.861,0.861l-1.377-2.066h-1.55l-1.205,1.979l-0.517,2.152
			l-1.894,0.947h-2.238l-0.689-0.688l-0.774,1.549v1.98l-0.904,0.904l-1.504,1.664l1.475,2.041l2.665,1.928h1.644l1.359,1.982
			l1.458-1.457l0.465,1.92l-0.523,1.746l-1.398,2.562v1.396l-2.591,0.611l-1.543,1.543l-2.387-0.873v-1.572l-1.281-1.279
			l-1.863-0.934l-1.747-0.523l-2.504,1.863l0.466,2.213l1.106,1.105l0.349,3.086l1.456,2.33l2.853,0.289l1.222-0.814l2.795,0.875
			l0.815,2.502v2.213h-1.339l-0.815-1.107l-1.921,0.174v0.816l-1.776,0.609l-2.358,2.359v1.281l-1.514,2.037v1.98h-1.223
			l-1.572,2.852l-0.291,1.689l-1.805,0.814l-0.699,1.221h4.076l1.339-0.523l1.863,0.814h1.165l0.815,1.455l-0.582,1.457
			l-2.154,1.047l0.175,1.455h1.223l0.344,1.807l0.918-2.412l2.296,0.574l1.951-0.574l0.804-2.064l-0.804-2.871l1.951-0.803
			l2.985-0.115l1.951,1.951h1.607l1.435-1.434l-1.55-1.551l-1.263-1.264l-1.262-0.803l1.607-1.607l-0.803-1.721l0.803-2.525h2.41
			l2.641,1.377l1.836,1.607l2.066-0.574L413.386,544.606z M526.402,384.893l-1.146,1.146l-1.249,1.043l1.146,0.833l0.938-0.833
			h1.458l1.354-1.251l-1.25-1.25L526.402,384.893z M522.652,373.332l-0.938,0.832l0.625,0.938l1.25-0.833l1.562,0.416l-0.417-0.937
			L522.652,373.332z M517.86,377.498l-0.521,1.354l0.834,0.729l0.938-1.146L517.86,377.498z M506.714,370.727l-1.146,0.833
			l0.417,0.938l-0.834,1.145l0.208,0.729l1.875,0.521l1.771-0.833l1.041,0.105v-1.043l-1.666-0.417l0.833-0.937l-0.938-1.354
			l-1.146,0.417L506.714,370.727z"/>
		<path id="Siberia" fill="#FFFFFF" stroke="#000000" stroke-width="1.0331" d="M646.152,464.179l-0.072-1.361l-1.686-0.107
			l-1.254,1.254l-1.578-0.717l-2.078,0.789l-1.004-1.219h-1.076l-0.932,0.932h-1.865l-1.219-0.572v-2.295l0.717-0.719v-1.504
			l-0.574-1.721l1.363-2.15l0.789-2.223l-2.365-2.367l-0.646-3.154l-2.008-1.076v-2.008l0.789-0.717l-0.789-0.789v-1.863
			l-2.15-0.861l-0.645,0.645l-0.646-1.936l1.076-1.076l1.146-1.863l1.721-0.502l-0.646-4.445l-0.502-2.867v-1.506l-2.006-3.658
			l-0.215-3.799l-2.008-1.362l-0.861-2.008l-0.619-1.545v-0.946l2.41-0.947l2.498-3.53l1.721-0.516l2.324,0.688l0.689-1.55v-1.894
			l-1.291-1.292l0.602-2.238l1.723-0.603v-1.808l-0.086-2.325l1.895-1.291l2.195-2.196l0.473-1.592h0.947l-0.172-2.325h-1.809
			l-1.635-3.099v-2.842l-1.463-1.463l-3.1-2.238v-1.205l-2.324-0.861l-0.814-1.713l0.393-2.307l-0.977-0.977l-1.018-1.538
			l-0.52-1.33l0.789-0.831l0.229-1.102l-0.914-0.728l-0.299-2.016h-1.377l-1.723,0.114l0.115,1.837l-0.115,0.919l1.379,0.115
			l0.861,0.86l-1.092,2.124l-1.836,0.688l-1.951,1.606c0,0-0.344,2.066-1.377,2.066s-2.871,0.574-2.871,0.574l-2.066,1.262
			l0.461,2.296l-2.066,0.919l0.572-2.066l0.461-2.984l1.893-1.894l0.861-2.583l2.756-0.688l0.688-3.559l1.723-1.722l0.688-3.215
			v-1.148l2.297-2.755l1.32-1.32l1.09-2.238l1.148-1.607v-2.295l1.318-1.32l-1.434-2.468l-2.295-1.262l-0.92-0.918l2.297,0.459
			l0.229-2.411l-1.549-1.55l-1.205-1.205l-0.805,0.918l-1.377-1.148l-1.148-2.296l-1.318-1.32l-1.779,0.861l-1.32-1.32l-2.354,1.665
			h-2.297l-2.525,1.377l1.033,1.033l-0.572,1.951c0,0-1.838-0.804-2.527-0.804c-0.688,0-0.572-1.493-0.572-1.493l1.492-1.493
			l-1.664-1.665h-2.238l-0.719,0.718l-3.645-0.201l1.492-1.951l1.779-1.779l-0.516-2.354l-1.723,0.229l-2.295-1.377l-1.836,1.951
			l-2.067,1.492l-1.722,4.248l-0.574,1.837v2.755l0.918,0.688l0.229,1.951h-0.804l-2.64,0.804h-2.525l0.688,1.263l1.377,1.033
			l1.033,1.377l-2.295-0.459l-2.296,0.459l-0.345,1.836l-3.559-0.114l-1.435,1.435v-1.665l1.09-2.066l-2.066,0.344l-0.573,1.262
			l-2.525,0.345l-2.984,0.688l-1.148,1.148l2.066,0.688l-0.688,0.804l-3.1,0.918l-1.09,1.09l-4.305,0.632l-1.205,1.205l-3.157,1.205
			l-1.262,2.64l-3.215-0.115l0.115,1.722l1.606,0.115l-1.606,1.263l-1.148,1.606l0.977,0.976l-0.632,1.436l0.918,1.032l-1.377,0.345
			c0,0,0-1.722-0.861-0.861c-0.86,0.861-1.32,1.32-1.32,1.32l1.148,1.148l1.377,0.459l1.148,1.723l-1.148,1.147h-2.181l-2.983,1.263
			h-4.478v0.688l-2.755-1.033h-5.395l-2.296,2.066l0.574,2.869l0.918,0.919l-1.033,2.296l-0.688,2.755l0.918,0.919l1.606,2.64
			l2.182,0.803l-0.115,1.607l1.263,1.722l-0.46,1.837h-3.099l-2.009-2.009l-0.746-0.747l0.804-2.294l-2.984-1.608l-1.55-1.549
			l-1.894,0.286l-2.296-0.459l0.115,1.378h1.091l0.459,1.263l0.977,0.976l1.435,0.287l1.606,0.861l0.401,1.492l-1.09,1.09
			l0.229,1.205l-2.182,0.345l-1.578,1.579l0.718,1.521l0.459-0.631l0.746,1.435l2.468,1.377l-0.229,2.755v3.961h-2.296l-0.86,1.377
			l-1.693,1.693l-2.095,1.578l0.115,2.123l1.004,1.005l0.315,1.233l1.436,1.436l2.181,0.345l0.287,1.492l0.746,0.746l1.378-1.205
			c0,0,0.502,0.875,0.688,0.688c0.187-0.188,1.377-1.32,1.377-1.32l-0.057,2.238l1.778,0.345v1.777l1.091,2.641l-0.632,1.664h-0.86
			l0.918,1.723l-0.746,2.182l-1.234,1.232l-0.431,1.406l-1.606-0.344l-0.058,1.836l1.119,1.119l0.373,2.096l-0.976,1.721
			l1.033,1.033v1.607l2.525,1.492l0.976,2.01l-1.551,1.434v1.148l0.805,1.377v2.066l-1.033,0.805l1.262,2.295h1.378l1.377,1.377
			l1.033,2.066l0.23,2.641l-1.147,1.146l0.573,2.412l2.641,0.574l1.319,1.318l1.32-1.318l0.459,2.754l-0.458,2.41l0.803,1.838
			l-1.55,1.549l-1.664,2.123l-1.148,2.182l1.722,2.41v2.869l-1.664,1.666l-0.172,2.582l-0.977,0.975l-2.698,2.697l0.037,3.525
			l2.898,1.908l3.252,1.414l-1.697,2.828l-4.1,1.768L538,506.78l-4.24-3.111l-4.525,1.91l-0.848,2.826l-3.04-1.555l-2.191,0.564
			l-2.65-2.648l-2.863,1.094l-3.676-0.424l-0.99-1.484h-3.958l-2.757-1.201l-3.677,0.564l-2.686,6.01l0.212,3.604l-3.817,1.061
			l-3.11,2.264l-0.354,2.402l-3.253,1.902l-1.033,1.463l-1.852,1.852l-2.281,1.076h-2.755l-1.722-0.516l-1.979-1.033l-0.775,1.119
			h-2.324l-1.464-0.947l-1.291-0.604l-1.98-0.602l-1.549-0.518v-1.377l1.119-1.119l-1.809-1.809l-1.722,1.207l-0.798,1.328
			l-1.612,1.77l-0.173,1.809l0.775,2.324l-1.809,0.861v1.291l1.55,0.775l1.076,1.076l0.56,1.334l1.723,0.947v1.549l-0.818,0.818
			l-2.195,0.387l-2.884,2.885v2.023l-0.474,1.205l-1.205,1.205l-0.947,0.172v1.551l-1.162,1.162l-0.646,1.334v1.377l1.722,0.805
			l0.918,2.869l-0.574,1.607v2.18l-1.435,1.436l0.631,2.01l2.526,0.688l2.295-1.377l1.665,1.664l-0.746,2.699l2.296,0.688
			l1.262-1.264l2.066,1.264h2.296v1.605l-2.755,1.264l-0.688,3.1h1.951l2.411-1.146l1.262,1.836l2.755-1.492l3.215-0.92l1.894-1.893
			l1.779-0.059l2.41-0.113l1.722-1.723h2.066l0.574,1.607l-1.377,1.836h-1.607v2.066l1.951,0.803l1.435,1.436l1.32,2.812
			l1.263,1.262l1.951,1.953l1.378,4.59v3.789l1.837,1.721v2.756l1.951,3.443l0.574,2.984l0.803,2.641l1.492,2.984l2.526-0.459
			l1.262-2.641l1.837-0.574l1.263,1.492v1.723l1.263,1.262l1.378,1.377l2.524-0.459l1.148,1.148l2.869-0.459l1.436-1.434h2.927
			l1.406,1.404l2.152,0.947l1.607,1.492l0.458,2.756l1.952,1.262l0.918,2.066l2.41,1.492v2.754l3.1,0.805l2.755,0.918l2.984-1.146
			l1.779-1.781l0.631,2.354l1.264,2.297l1.033,1.721l3.328,0.574l1.493-1.492l2.869-1.607l3.443,0.115l1.895-1.895l2.697-0.631
			l0.459-2.41h2.296l2.296-2.297l3.788-2.41h2.984l0.804-2.41h2.524l2.01-2.008l2.468,1.09l1.951,1.951l3.1-1.262l2.64,0.803
			l2.182,2.182l1.836,1.836l3.329,1.148l2.297,0.688l3.213-0.574l3.1,0.805h3.328h2.182l2.582-2.582l2.697-1.779v-2.756l-2.008-2.01
			v-2.58l-1.436-1.723l0.459-2.984l1.551-1.551l1.434-2.926l1.779-1.781l1.32-1.318l2.641,1.951h4.477l2.238,2.236l3.271-0.859
			h2.869l2.986,1.148l2.123,2.123l1.664,3.5l1.779,1.781l2.812,1.205l4.131,0.344l2.871-0.805l2.984-0.688l2.697-2.697h3.271
			l5.279-0.748l1.607,1.033l4.018,0.574h4.361l1.607,1.607l0.918,1.723l3.1,1.033l3.443-0.461h4.707l3.328-1.033h3.674l1.436-1.434
			l2.812-2.812l3.672-1.721l2.641-1.838l2.008-2.008l0.977-3.387l4.133-4.133l2.869-1.262l2.182,0.803l2.41,1.262l3.215-1.836
			l2.295-1.377l3.1,0.574l4.246,0.344l3.789-1.377l2.238-2.238l1.549-3.615l2.41-0.689v-3.215l-1.033-1.033l-1.721-3.328
			l1.262-3.215v-3.1l0.689-4.934l0.918-1.953l-0.918-3.672l-1.607-1.607l-1.436-1.436l-1.777,1.436l-1.264-1.607l0.918-2.295
			l1.264-3.789l1.777-1.779l3.617-2.123l-1.664-2.869l-0.746-1.492h-1.951l-0.574-2.467L743,531.118l1.721-1.033v-0.803h-0.918
			l-1.549-1.664l-1.264-0.172l0.287-2.928l-0.746-1.32l-0.803-2.238l-1.838-0.918l-1.32,1.836l-1.377-0.516l-0.115-1.951
			l-0.918-0.918l-1.348-0.373l-1.406,1.406l-0.689,1.721l-2.354-0.631l-0.746-1.434l1.379-1.723l-0.805-1.32l-1.549,0.516
			l-2.01-0.516l-1.383-1.398l-0.027-1.383l-1.863-0.502v-2.006l-1.721-0.574l-1.793-2.367l-2.508-0.932l-0.539-2.617l-1.182-1.182
			l0.393-1.256l-3.262-3.262l-0.932-2.58l-1.434-0.145v-1.648l-1.541-1.684l-1.256-1.256h-1.828v1.756l-1.613,1.613l-2.51-0.357
			v-1.65l-1.074-0.93v-2.08l-2.223-0.287l-2.582-1.221l-2.438,0.289l-2.438-0.357l-1.361,1.646l-0.682,2.26l-1.613,1.611
			l0.645,2.223l-0.859,2.582l-2.15,2.15v4.016l-3.012,2.078v2.367l-1.291-1.793v-2.008l-1.506-1.506l-1.434,0.646l-0.357,1.863
			l-3.801,1.434h-1.791l-0.717,2.15l-1.148,1.721l-2.473,0.18l-2.76-2.76l-0.287-5.736l0.357-3.439v-3.229l0.43-2.867v-2.795
			l-2.006-0.861l-1.436-0.502l-0.215-1.363l-0.662-1.557l-1.309-1.311v-1.541l0.896-0.896l0.25-2.115l-1.254-1.252h-1.65
			l-1.791-0.861v-1.65l0.717-0.717l-0.789-0.787l-0.645-2.51l-1.436-2.58l-1.719-1.219l-1.938,0.572l-1.863,0.145v-2.223
			l1.541-0.432v-1.469L646.152,464.179z M607.551,331.767l-0.418,0.625l0.939,0.625l0.416-0.729L607.551,331.767z M603.072,322.496
			l-1.043,0.625l1.459,0.729l1.041,0.729l1.146-0.312l-0.312-1.353l-1.146,0.312L603.072,322.496z M592.863,317.391v-1.458
			l0.104-2.604l-0.729-1.458l-1.042,0.104l-1.458,1.771l0.104,1.562l-0.626,1.043l0.417,2.812l-1.25,1.25l0.104,2.813l-0.624,2.396
			l-0.521,2.396l0.938,0.521l1.979-1.562l1.146-0.729l2.604-1.354l2.083-0.208l2.605-1.979l1.248-2.396l-0.832-2.084l-0.938-1.562
			l-1.25,0.521l-1.25-2.188l-0.938-0.938l-1.146,1.354L592.863,317.391z M583.487,306.245l-0.938,1.146l-0.833,1.563l-0.729-0.313
			l0.521-1.979v-2.083l-2.292,0.729c0,0-1.354,0.313-1.667,0.417c-0.312,0.104-1.875,0.625-1.875,0.625l-0.729,1.562l-0.417,1.354
			l-0.938,1.146l0.313,1.354l-1.771,1.354l0.834,0.729l1.249-0.416l1.042,1.458l0.104,1.354l0.938,1.146l2.396,0.208l0.312,1.353
			l1.667-1.041l0.834,1.354l2.29,0.833l2.188-1.042l1.042-1.459l-0.833-1.667l-1.354-1.875l1.042-0.729l0.416-1.771l-0.521-1.979
			l0.209-1.979L583.487,306.245z M581.612,338.122l-1.042,1.25l-1.354,0.312l1.25,0.937l1.25-1.25L581.612,338.122z
			 M564.215,337.705l-0.521,0.833l0.729,0.625l0.938-1.355L564.215,337.705z M553.486,366.248l-1.25,0.625
			c0,0,0.521,1.562,0.521,1.354c0-0.208,0.937-0.416,0.937-0.416L553.486,366.248z M544.528,356.873l-1.146,0.937l0.625,1.25
			l1.041-0.208L544.528,356.873z M544.11,370.518l-0.207,1.146h1.771l0.938,0.937l0.104-1.562l-1.042-0.208L544.11,370.518z
			 M538.069,308.745l-0.625,0.625l0.729,0.417l1.146,0.833l0.312-1.042L538.069,308.745z M531.714,381.352l-0.729,0.937l0.417,1.25
			l0.729,0.938l1.041-1.146l0.417-1.354l-0.938-0.938L531.714,381.352z M546.827,295.26l-0.861,0.172l-0.559,0.56l0.86,0.861
			l1.162-0.387l0.688-0.688L546.827,295.26z M566.542,293.538l-0.774,0.775l0.603,0.603l0.646,0.645l1.334-1.248v-0.861
			L566.542,293.538z M574.806,292.418l-0.258,1.722l-1.55,0.688l-2.324,1.55v2.152l0.946,0.947l-1.248,1.248l-0.817,1.593
			l1.119,1.55l0.43,1.55l1.98,1.722l1.808-1.722h1.205l1.809-1.033l2.152-0.688l-0.603-2.066v-2.583l1.291-1.12l-1.076-1.076
			l-2.195-2.195l-0.775-1.722L574.806,292.418z M569.727,306.709l-1.464-0.172l0.259,1.894v1.205l1.894,0.517l0.774,0.775
			l1.163-1.163l0.646-1.678l-1.119-0.861L569.727,306.709z M546.741,350.788l-0.56,0.559l0.731,0.646l1.205-0.345L546.741,350.788z"
			/>
		<path id="Far_Eastern" fill="#FFFFFF" stroke="#000000" stroke-width="1.0331" d="M723.227,513.364l-1.861-0.498v-2.008
			l-1.719-0.574l-1.793-2.367l-2.51-0.93l-0.537-2.619l-1.184-1.182l0.395-1.256l-1.758-1.756l-1.506-1.506l-0.932-2.58
			l-1.434-0.145v-1.65l-1.543-1.684l-1.254-1.254h-1.828v1.756l-1.613,1.613l-2.51-0.359v-1.648l-1.074-0.934v-2.078l-2.225-0.287
			l-2.58-1.219l-2.439,0.287l-2.438-0.359l-1.361,1.648l-0.682,2.258l-1.611,1.613l0.645,2.225l-0.861,2.58l-2.15,2.152v4.014
			l-3.01,2.08v2.365l-1.291-1.791v-2.01l-1.506-1.504l-1.434,0.645l-0.359,1.863l-3.801,1.434h-1.791l-0.717,2.152l-1.148,1.719
			l-2.473,0.18l-2.762-2.758l-0.287-5.736l0.359-3.441v-3.227l0.432-2.867v-2.797l-2.008-0.861l-1.436-0.5l-0.215-1.363
			l-0.664-1.559l-1.307-1.309v-1.541l0.896-0.896l0.25-2.115l-1.254-1.254h-1.65l-1.793-0.861v-1.648l0.717-0.717l-0.787-0.791
			l-0.646-2.508l-1.434-2.582l-1.721-1.219l-1.936,0.574l-1.865,0.143v-2.221l1.541-0.432v-1.471l-1.613-1.611l-0.072-1.363
			l-1.684-0.107l-1.256,1.254l-1.576-0.717l-2.08,0.789l-1.004-1.219h-1.074l-0.934,0.932h-1.863l-1.221-0.572v-2.295l0.719-0.717
			v-1.506l-0.574-1.721l1.363-2.152l0.787-2.221l-2.365-2.367l-0.646-3.154l-2.006-1.076v-2.008l0.789-0.717l-0.789-0.789v-1.865
			l-2.15-0.859l-0.646,0.645l-0.645-1.936l1.074-1.076l1.146-1.863l1.723-0.502l-0.646-4.447l-0.502-2.867v-1.506l-2.008-3.656
			l-0.215-3.8l-2.008-1.362l-0.859-2.007l-0.621-1.545v-0.947l2.41-0.947l2.498-3.529l1.721-0.517l2.324,0.688l0.689-1.55v-1.894
			l-1.291-1.291l0.602-2.239l1.723-0.603l-0.086-4.132l1.895-1.291l2.195-2.196l0.473-1.593h0.947l-0.172-2.324h-1.809l-1.635-3.1
			v-2.841l-1.463-1.464l-3.1-2.238v-1.205l-2.324-0.861l-0.814-1.712l0.393-2.308l-0.977-0.977l-1.018-1.538l-0.52-1.329
			l0.789-0.832l0.229-1.102l-0.914-0.728l-0.299-2.016l1.951,0.459l2.297,0.919l0.459-1.378l1.436-2.009l1.205,1.205v2.296
			l1.377,1.951h1.607l-1.607-1.493l1.09-1.093l2.123-2.123l2.871-1.493l4.361-0.804l3.443-1.033l0.861,1.32l-0.803,0.804
			l1.893,1.894h3.559l0.115-0.918l0.344-1.262l1.379,2.181l2.41-0.918l2.41-2.066c0,0,2.525-0.459,3.1-0.459s0-2.066,0-2.066
			l-0.344-2.296l-1.723-2.64l0.459-2.64l0.344-1.377l1.379,1.377l1.434-1.09l1.205,1.206l1.838,1.262l0.459-1.377l0.918-0.229
			l0.918,1.033l0.918-0.688c0,0-0.113-2.124,0.746-2.124c0.861,0,1.092-1.09,1.092-1.09l2.525,1.951l0.803-0.804l2.754,0.918
			l-0.918,2.812h1.32l1.32,1.32v2.181l2.182-1.377l1.148,1.148v2.525l-1.494,0.459l-0.918,0.918l1.607,1.607
			c0,0,1.262-0.574,1.262-1.148s1.033,1.033,1.033,1.033v1.837l2.354-0.058l2.238,2.238l1.723,1.147l2.41,0.46l1.033-1.033
			l2.641,1.377l0.229-2.181l-1.146-3.788l-0.689-1.722v-1.607l-1.492-1.493v-2.066l2.869,0.344l1.607,1.607l2.525-0.689h2.869
			l-0.574-2.984l1.607-2.984l2.984-0.689l2.182-0.115l2.525,0.688v-1.722l-2.697-1.205l0.975-0.976l1.264-1.377l2.18,0.115
			l1.723-1.722l-0.803-0.459l-1.723-1.722l-1.951-1.033v-2.525l-0.803-0.689l-1.148,2.984l-1.377-0.918v-2.411l2.525-2.295
			l-0.346-1.607l-2.41-1.492l1.492-1.493h2.182l3.213-1.607l0.918-2.64l4.248-1.607l3.328-1.492c0,0,0.461,0.459,0.461,1.148
			c0,0.688-2.182,1.493-2.182,1.493l-0.805,3.099l1.953-0.918l1.721-1.722l2.182,0.689l-0.574,4.477l1.951-1.837v-2.181
			l-0.689-3.673l0.459-1.607l1.033-2.87l2.412-1.148l3.443-1.492l2.066,1.492c0,0-0.977,1.32-1.723,2.066
			c-0.746,0.746,0.805,1.262,0.805,1.262h2.523l1.607-1.836c0,0,1.836,1.951,2.182,2.295c0.344,0.344-0.346-2.64-0.346-2.64
			l3.1-1.722l2.182,1.148l2.41-0.114l2.182-2.181l2.295-2.87v-3.328l2.871-4.248l2.41-2.411l2.18-2.641l3.789-0.574l3.156-0.172
			l1.551,1.549l3.213,3.214l2.869-1.262l2.066-1.665h2.238l-1.09-1.09v-1.607l2.18-2.181v-3.788l1.033-1.951h1.723l1.492-1.493
			v-2.295l2.871-2.066l0.688-2.755l-1.148-1.148l0.461-1.377l-1.607-2.295l1.262-2.296l1.205-1.205l2.182,2.181l-1.664,1.665
			l1.721,1.722h2.641l1.836-0.689l2.525-1.148l2.297-0.574l0.574-1.837l-0.689-1.837l-1.262-0.229l-3.904-1.722l-2.869,0.459
			l-0.688-1.607h-2.297v-1.262l0.574-2.181l2.066-1.033l0.229-2.411l1.838-1.033h1.605l-0.688-1.951l0.688-2.066l1.951-2.87
			l0.918-3.329l3.502-3.386l3.902-3.903l1.779-1.779l3.445-1.493l2.467-1.435l2.295-2.295l2.354-2.354l2.871-1.148l2.066-2.984
			l3.902-1.147l2.064-2.181l2.525-1.148l1.607-0.918l1.838,1.836l2.639-0.804l2.354,1.779l1.551-1.55l2.754-1.492v-1.378
			l-2.754,0.574l-3.215-0.229l-2.066-0.574l0.689-2.066l2.18-1.492l-1.836-0.459v-1.033l1.264,0.115l0.229-2.066l1.148-1.607
			l1.607-1.606l2.754-1.033h0.805l2.064-2.87c0,0,1.951-0.574,2.641-1.262c0.689-0.689,0,1.951,0,1.951l1.492,1.262l1.148,1.148
			l-1.264,2.64c0,0,1.723,0,2.412-0.688c0.688-0.689,0,1.377,0,1.377v2.41l-2.641,1.722l2.066,0.344l1.262-1.263l2.697,1.033v-1.205
			l2.125,2.123l1.492,2.296l1.262-0.345l1.262-1.606v1.492l0.805,1.837h-2.41v0.918l1.951,0.574l-1.033,2.984l-2.641,0.229
			l-2.41,2.64l-1.262,2.755l-2.412,0.804l-1.721-0.688h-2.182l-1.951,2.87l0.861,1.722v2.927l-1.895,1.894l-1.492-1.148
			l-1.492,1.148h-2.182l-1.262-1.033l-1.148-0.688l-0.172,1.09l0.861,0.861l-1.033,0.459l-0.689,0.688l2.01,0.344v1.55l1.549,1.55
			l2.525-0.689h1.723l0.113,2.181l1.033-1.033l1.779,1.779l1.895,1.894l0.918,3.329l0.459,2.64l-1.836,2.984h-1.723l-2.41,1.033
			l-0.803,1.837l1.951-0.803h1.262l-1.836,2.182l1.148,1.146l1.492-0.574v-2.181l1.377-1.033l2.467-0.057l1.436-1.435l0.689-1.148
			l1.723,0.115l1.377-0.229l2.525-0.115v1.607h2.064l0.574-1.09h2.01l1.205-1.205l1.492-0.229l1.262,1.033l1.838-1.378l0.861,2.009
			l1.664,1.665v2.411l-2.297,0.918l-1.492,3.214h-2.41l-0.688,1.033l2.697,1.779l-0.861,0.861l1.951,2.984l0.803,3.673v4.132
			l0.689,3.214l1.148,2.755l0.574,3.673l1.146,3.559l2.182,1.951v3.329l1.148,4.591l1.951,2.181l1.262,1.263l-1.951,1.722
			l-2.066-1.033l-2.869,0.918l-1.492,3.444l-2.41,3.443l1.262,1.263l-0.918,3.213v1.722l1.951,2.984v1.837l-2.18-1.033l-1.607-1.607
			l-1.377,0.115l1.262,3.329v2.181l2.123,0.976l-2.123,2.123h-1.377v2.984l-1.264,1.263l1.723,2.87l1.377,1.377l1.607,1.607
			l2.182,2.181l0.457,3.214l0.346,2.525l3.156,1.664l1.895,1.894h3.213l-0.859-1.951v-0.976l1.09-1.09l0.805-1.722l2.984,2.984
			l0.572,2.641l2.984,2.066l2.957,0.66l1.176-1.176h1.895l2.238,2.238l-0.918,2.181l-2.297,0.689l0.689,2.755l2.41,4.017
			l2.123,0.517l1.666,1.665l3.902-0.46l2.295,1.837l0.803,2.066l-1.377,0.918l-1.951,1.263l-1.148,2.525l0.805,4.592l2.295,3.558
			l2.01,0.746l0.975,0.977l3.33,0.804v1.377l-2.525,0.345v2.065l-0.918,2.066l1.146,4.133l1.951,0.804l2.984,2.984l2.182,2.065
			l0.459,3.674l1.148,4.82l0.574,3.1v2.296l-1.264-1.722h-3.328l-2.123-1.091l-1.666-1.664H913.4l-2.066-2.066l-4.018-1.837
			l-3.787-1.606l-4.363-2.296l-1.262-1.722l-2.066-1.378l-2.295-0.459l-4.936-1.492l-3.215-1.722l-3.1-2.066
			c-0.516-0.517-1.492-2.755-1.492-2.755l-3.33-3.322l-2.295-2.41l-0.002-2.411l-1.605-1.607l-0.346-2.641l-1.951-2.755
			l-2.123-0.459v-0.976l0.975-0.976l0.805-1.722l-1.09-1.895l1.033-1.033l0.861-0.86l-1.148-3.444l-0.574-3.673l-1.377-4.247
			l-2.182-2.87l-0.918-3.788l-1.033-3.559l-1.148-2.87l-1.377-4.248l-1.377-1.148l-0.115-2.295l0.803-2.755v-1.607v-1.951
			l-1.377-1.377l-1.492-2.87h-1.492l-1.436-0.516l-1.318-1.32l-1.609-2.066l-2.41-1.493v-2.64l2.182-2.065l-0.746-0.747
			l-1.779,1.779l-2.525,1.377v2.411l-0.688,1.837l1.377,1.262l2.008,2.009l1.895,1.894h2.297l-0.23,1.492l-1.033-0.115l-1.09,1.547
			l1.436,1.432v3.673l1.148,2.755l0.229,4.362l-0.803,2.641l-0.92-2.295l-2.064-1.033v2.87l-1.723-1.722l-1.146-1.148l-0.92-1.951
			l-3.213-2.984l0.918,2.525l-0.918,2.755h-3.1v1.837l-1.033,3.788l-1.264,1.493l0.115,5.05l2.066,1.377l-0.344,3.214l2.066,3.214
			v3.444l0.631,4.533l1.895,1.895v2.065l1.605,1.608l1.494-0.23l1.318-1.205l0.977-0.976h1.721l-0.113,2.181l-1.838,0.574v3.1
			l-3.443,0.573l0.803,4.018l-0.344,1.722l-2.18,0.918v2.41l-0.805,2.181c0,0-2.697,0.632-2.182,0.115
			c0.518-0.517-1.031-1.033-1.031-1.033v-1.493l0.459-1.491l1.893-0.632l-0.859-0.86l-2.066,0.804l-2.182,0.344v1.033l-3.213,1.492
			l-1.607,1.951l-1.836,0.459l-1.494,1.492l-0.572,1.723l0.572,2.181l1.264,1.263l-1.492,1.606l-2.41-0.918l0.746,2.468
			l-1.779,1.779l-1.607,1.492h-1.377l-1.379,1.263l0.92,1.492l0.688,0.688l-1.951,1.264h-2.641l-2.582,2.582l-1.664,1.664
			l-1.838,3.1l-1.951,1.951l-1.951,3.902l-0.344,3.787l1.836,3.674l-1.721,1.723l-0.574,3.674l1.033,2.639l1.607,1.607l-1.379,2.295
			v3.1v4.133l-0.688,2.871v3.902l1.148,1.262v2.756v3.1l-1.033,3.902v3.213l-1.723,2.871v2.869l-0.918,2.525l1.033,2.324h1.75
			l1.35-1.348h1.893l1.492-1.494l1.664-1.664l1.148,1.148l1.377,0.688v1.494l1.092,2.008l1.377,1.377l1.205-1.205v-1.836
			l-1.607-0.689v-1.721l1.264-1.377v1.146l1.377,1.033l0.689-0.23l0.689,0.689v2.066v1.492l2.295-0.918v-1.148l1.262-1.721
			l0.805-0.689l1.262,0.918l0.287-1.895l-1.09-1.09l-1.033-1.951l-1.264-2.297l2.066-1.146l1.264-1.264l2.525-0.572h2.984
			l2.467,0.285l1.092,1.092c0,0,2.641-0.461,3.213-0.461c0.574,0,2.182-0.688,2.182-0.688l1.436,1.436l-1.092,1.09l-0.803,0.803
			l-0.689,1.264h1.951h2.066l0.459,1.492l1.723,1.721l2.123-0.285l1.092,1.09l1.146,2.182l0.344,4.361l1.492,4.592l2.354,3.385
			l2.928,2.928l1.148,1.148l0.572,1.951l2.297,2.297l1.607,2.754l0.574,1.607l2.123,3.271l1.779,1.779v4.82l-0.689,4.133
			l1.264,4.131l-0.115,4.246l1.262,3.33l0.918,3.674l0.689,3.328l0.689,4.477v4.361l-0.689,2.297v4.477v5.51l-0.689,4.133
			l0.689,4.246l-0.229,5.51v2.641l-2.297,3.787l-1.492,3.215l-1.723,3.215h-1.492l-2.869,1.146l-2.41,1.379l-1.664-0.689v-1.551
			l-0.861-0.859l-0.861,1.951v2.123l-0.975-0.975l-1.492-1.492v1.146l-0.459,2.869l0.459,1.953l-0.633,2.238l-0.975,0.975v1.148
			v1.836l-2.182-0.113l-0.918-0.92l0.803-2.641l1.379-2.754v-2.295l-1.205-2.699l-2.469-2.467l-1.264-1.264l-1.033-2.641l-2.18-2.18
			l-2.066-0.689l-0.057-2.238l1.434-1.434l1.264-1.262v-2.297l1.605-1.607l1.838-0.918l1.895,0.631l1.664-1.664l1.033-2.066
			l-1.838-2.869l0.918-2.412l-1.146-2.523l-0.23-2.641l-1.605-2.182l0.459-1.836l-1.264-2.18l-0.574-2.525l-2.297-2.41l1.723-1.723
			v-2.525l-1.436-1.434l-1.662-1.668l-0.459-1.492h-1.951l0,0l-2.756,1.492l-0.689,2.297l-1.836,2.984l-2.066,2.639l0.918,2.871
			l-2.41,1.951l-2.41,1.377l-2.066,0.689l-0.574,2.066h-2.18l-2.182-1.262l-1.607-0.574v-2.641l-1.836-1.607l-1.49-1.492
			l-2.471-0.631l-1.32,1.318l-2.639-0.688l-2.182-0.574l-3.328,0.459h-3.1l-1.264,1.264l-3.443,1.262l-3.443-0.689l-1.434-2.811
			l-1.666-1.666c0,0-1.951-1.146-1.951-1.607c0-0.459-2.18-2.18-2.18-2.18l-2.756-0.459l-1.148-2.756l-2.641-2.064l-1.836-1.838
			l-2.525-0.688l-0.918-2.41l-2.297-1.033l-1.377-1.379l-4.592-0.459h-2.41l-2.754,1.492l-3.443-0.574l-2.641,0.92h-2.869
			l-3.904,2.869l-1.836,1.836l-1.664-2.869l-0.746-1.492h-1.951l-0.574-2.467L743,531.118l1.721-1.033v-0.803h-0.918l-1.549-1.664
			l-1.264-0.172l0.287-2.928l-0.746-1.32l-0.803-2.238l-1.838-0.918l-1.32,1.836l-1.377-0.516l-0.115-1.951l-0.918-0.918
			l-1.348-0.373l-1.406,1.406l-0.689,1.721l-2.354-0.631l-0.746-1.434l1.379-1.723l-0.805-1.32l-1.549,0.516l-2.01-0.516
			l-1.383-1.398L723.227,513.364z M844.057,465.847l-0.795,0.199l-0.596-1.688v-1.49l2.582,0.695l1.291,0.596l0.695,1.588
			l1.391,1.393l2.482,0.496l0.596,1.59l2.781,1.787h1.49l1.191,1.688l0.992,2.684l1.541,1.537l2.93,3.031l1.885,0.496l2.584,0.992
			l2.482,2.186l3.377,1.887l2.184,1.887l2.881,1.49l2.482,1.49l1.59,1.289l2.781,1.094l-0.396,1.291l-0.992,0.992l-1.889,0.598
			h-1.488l0.396,2.084l-0.396,1.49v1.191l1.688,2.582c0,0,1.59,1.787,1.291,2.086s0.1,3.078,0.1,3.078l1.291,1.291l1.986,1.988
			l1.688,1.092h2.582l1.49,1.488h1.689l0.893,1.887l2.186,0.1l1.34-1.34l2.334,1.34l1.393,1.789c0,0,0.496,1.191,0,1.191
			c-0.498,0-3.18-1.291-3.18-1.291l-1.141,1.143h-2.533l-0.795,2.035l0.498,1.986l1.588,1.588l1.191,2.584l-1.588,1.291l-1.291-1.59
			l-1.689-1.689l-2.979-2.779v-1.889l-1.986-1.984l-1.887-1.887l-1.291-1.688l-1.59-3.08l-1.986-1.889l-2.086-1.189l-1.986-0.596
			l-1.689-3.576l-3.674-5.064l-2.98-2.98l-2.48-2.482l-2.186-2.979l-1.393-2.285l-3.771-1.688l-2.98-1.291l-1.789-0.199
			l-2.383-3.277v-1.488l-2.582-2.584l-1.391-2.58l-2.781-0.895l0.695-1.988v-1.488l2.285,0.695l0.396-1.986l-1.34-1.34v-0.746
			l-1.316-1.316L844.057,465.847z M927.979,517.688l0.396,2.086l0.199,1.986l0.795,0.297v-1.588l0.596-1.291v-1.789L927.979,517.688
			z M934.832,518.88v0.895l1.291,0.695v-1.49L934.832,518.88z M930.76,510.835l1.191,0.496l0.398-1.588l-0.598-3.178l1.094-1.092
			l-0.199-2.285l-1.689-0.496l-0.496,2.582l0.646,0.645l-0.547,1.938L930.76,510.835z M933.738,497.726l-0.496,0.496l0.396,1.689
			l0.795-1.191L933.738,497.726z M934.932,491.667l0.494-2.582l-0.693-1.588l0.396-1.689l1.342-1.342l0.346,1.838l-0.297,1.889
			l0.396,2.184l-0.695,1.59L934.932,491.667z M936.223,469.521v2.186v1.785h1.391l-0.396-1.688v-1.092v-1.291L936.223,469.521z
			 M878.42,341.303v2.185l-0.199,1.987l1.191,0.795l0.795,0.993l0.1,1.787l1.59,0.596l-0.398-1.787l-0.695-1.391l0.695-2.284v-2.78
			l-1.887-0.795L878.42,341.303z M917.053,351.731l-1.389,0.497l0.695,1.49h2.383h2.385l1.488-1.49l-1.887-0.596l-1.887,0.795
			L917.053,351.731z M923.908,424.927l-0.596,1.787l-0.943,0.943l1.092,1.092l0.645,1.342l-0.197,1.787l-0.1,2.285l1.043,1.043
			l1.143-0.646v-2.383l1.041-1.043l-0.844-2.035l-1.391-1.391l0.1-1.789L923.908,424.927z M928.178,440.419v1.49l0.994,0.496
			l0.695-0.893L928.178,440.419z M925.498,346.565l-1.291,0.894l0.695,0.695l0.943-0.944l0.943-0.944L925.498,346.565z
			 M794.061,227.103l-0.912-0.342l-0.797,0.834l-1.746,0.912l-1.424,1.423l0.131,2.449l-0.607,0.608l0.305,1.974l1.139,1.671
			l1.178,2.734l1.822,0.38l1.234-1.234l0.93-1.689l-1.025-1.101l1.52-2.203l-0.266-2.392v-2.848L794.061,227.103z M816.447,476.077
			l-0.994,1.092v1.391v1.488l1.689-0.693l0.895,0.893l0.992-0.99l0.396-1.988l-1.092-1.59L816.447,476.077z M702.768,299.369
			l-0.207-0.833l1.562,0.729l0.781-0.782l1.094-1.094l1.615-1.614l0.988,1.198h0.521l1.301-1.302l1.199-1.406l2.291-1.042
			l1.668,1.25l-0.938,2.604v1.458l-1.094,1.094l-1.721,0.782l-1.873,0.729h-1.875l-1.406,1.407l-2.24-0.782l-1.146-1.667
			L702.768,299.369z M698.914,301.558h-3.334l-1.094,1.093l-1.719,1.198l-1.25-1.25l-3.021,0.937l0.209,1.875l0.781,0.782
			l1.146,1.145l0.781,0.781l-1.146,0.938l-1.562-1.354l-0.832,0.833l-1.146-1.146l-2.605,0.521l-1.145-0.625l-0.521,1.354
			l0.834,0.833l-1.562,0.834v1.979l1.25,1.25l-0.314,1.458h1.146l1.459,1.458l-0.416,1.667l1.875,0.938l2.5,0.104l1.041,1.041h1.875
			l2.188-0.625v-1.667l-1.354-1.25l0.729-0.73l1.094,1.094l1.928-3.489l1.822-1.823l0.781,0.781l1.668-1.667l0.52-1.562
			l-1.875-0.625l-1.25,1.25l-1.562-1.146l-1.875-1.146l-1.875-1.354l0.625-1.354l0.99-0.99l0.781,2.656l1.197,1.199l2.031,0.364
			l1.25-0.521h1.043l1.041-1.042l-0.521-2.188h-1.666l0.416-1.875v-1.354L698.914,301.558z M700.686,319.891l-0.938,0.833
			l0.729,2.084l1.199,1.198l0.988-1.927v-1.562l-0.729-0.73L700.686,319.891z M704.955,321.766l-1.197,1.198l0.678,1.614
			l1.146,1.146l-0.73,1.667l0.625,0.625l0.938-1.979l2.396-0.522l2.084-0.833l2.812-1.667l-1.459-2.708h-1.98l-2.812-0.938
			l-1.301,1.199L704.955,321.766z M681.518,317.286l-0.938-0.937l-1.666-0.104l1.094,1.093l0.676,2.448h1.355v-1.354
			L681.518,317.286z M629.432,357.809l-1.928,1.926v1.302h1.615l0.521,1.25l1.354-0.624l1.562-1.563v-2.5h-1.979L629.432,357.809z
			 M697.346,284.473l-0.625,1.146l0.678,0.677l0.781-0.677L697.346,284.473z M691.514,329.995l-1.98-0.416l-0.625,0.521l1.146,0.521
			l1.459,1.146l0.623-0.833L691.514,329.995z"/>
		<path id="Northwestern" fill="#FFFFFF" stroke="#000000" stroke-width="1.0331" d="M350.139,351.189l0.287-2.123l3.5-3.501h5.854
			l1.836-3.214v-6.198l3.674-1.837l4.821-2.411l3.328,1.263h1.952l1.606,1.607l1.971-1.374l-0.479,2.407l1.951-0.23l2.755,0.115
			v1.837l0.574,2.066l-1.263-0.804l-1.319-1.32l-1.206,1.206l0.574,2.181v2.181l1.952,1.033l1.492,1.492v2.411l1.665,0.804v2.698
			l1.894,1.894l0.918,3.214v3.329l-0.574,2.87l0.689,1.607l0.057,3.501l2.009,2.009l-0.115,2.525l-0.459,4.132l-2.008,3.502
			l-3.042,3.041h-3.214l-3.558,0.689l-3.099-1.147l-3.387-1.895l-2.123-2.124v-3.1l-2.181-2.18l-1.033-2.411l-0.804-2.296
			l-1.492-2.525l-0.804-4.247l-1.606-0.688l0.517-2.583l1.319-1.319l-1.606-1.607l-0.746,2.009l-1.091,1.09l0.459,2.525l0.058,2.927
			l-1.263,1.263l1.665,1.664l-0.459,2.526l-1.606,3.558l-2.812,0.86l-2.239,2.239l-0.861,4.074l-2.124,2.124l1.722,5.396
			L351,390.849l2.353,2.354l2.525,2.524l2.87-2.065l0.574-2.869l-1.493-1.493l0.23-2.525v-1.951l1.951-2.066h1.951l0.688,5.166
			l0.631,3.387l2.009,2.008l1.262,2.641l3.271,0.976l0.976-0.976l-0.804-1.952l1.951-1.606l0.115-4.018l3.559,0.574l3.328-1.263
			l2.755,1.491l3.1-0.975h2.123l1.32,1.319l1.951,2.985l-1.606,1.606v2.525l1.435-1.779l2.009-2.008l2.755-0.574l2.296-3.329v-2.869
			l0.918-1.952l2.984-1.492v-1.836l2.87-1.722v-2.87l-0.459-2.755h1.951l0.632,1.435l2.583,2.583l1.951,2.984v4.018l-0.689,2.066
			l-1.033,1.032l-1.722-1.722l-2.41-0.573l-3.673,1.262v2.985l0.918,2.755v2.296l2.64,0.688l2.525,1.147l2.87-1.377v-2.066
			l2.984-0.688l2.87,1.377l-0.459-1.836l4.477,0.803l2.411-0.458l4.361,0.573h2.525l1.263,2.296h1.148v-2.066l3.673-1.147h1.952
			l0.804,2.983h-2.181l-0.689,2.066l-1.722,0.574l2.641,2.411h1.837l3.443-1.492l3.271,0.631l3.559,3.559l1.205-1.205h2.41
			l3.043-0.976l1.205,1.205l-0.345,1.607l-1.837,1.263v1.951l2.182,1.836l0.172-2.123l0.976-0.976l2.296,0.573v-1.836l2.182-0.345
			l0.459-2.755l-0.345-3.329l2.066-1.033l1.779-0.517l2.123,2.124l0.918-0.918l2.354,2.927l2.698,2.697l2.181,2.182l0.534,1.09
			l-0.937,1.377l-1.119,1.119l-0.688,0.688l1.119,1.062l0.229,0.861l0.86,0.287v1.778v2.124h-1.09l-0.518,1.262l-0.918,0.46
			l-0.344,2.123l2.295,1.147v1.492l-2.123,0.862l1.779,1.779l-2.756,1.377l-2.065,2.066h-2.181l-0.804,2.525h-3.903l-3.673,0.803
			l-3.673,2.066v2.525l-2.985-0.115l-2.209,0.346l-1.205,1.377l-2.152,1.119l-2.152,2.152l-1.98,0.258v-1.809l-1.463-0.516
			l-1.766,1.766l-2.367,2.367l-1.033,1.98l0.431,2.496l-2.755,1.723l-0.259,2.064l-2.324,1.465l-1.55,2.926l0.431,1.98l-0.947,1.809
			v1.549l-2.841,2.842l-0.387,2.023l-1.076,1.076l-0.603,1.635l-3.961-0.602l-2.927-1.119l-2.583-1.379l-2.668-1.807h-1.206
			l-0.688,1.463l-1.162,0.387l-0.818-0.816l-1.162-0.389l-1.163,1.162l-2.066-0.773l-1.808,0.947l-1.636-1.637l-2.497-1.119
			l-1.463,0.518l-1.206-1.465l0.258-1.463l-0.603-0.947l-1.463-0.516l-1.119,1.119l-0.818-0.818l-0.818,0.818l-2.325-1.293
			l-1.076,2.109l1.162,1.162v1.379l-1.753,0.691h-1.863l-1.057,1.059l-1.711,0.199l-0.554-1.258l-0.957-0.955l-1.812,1.711
			l-1.309-1.309l-2.114-1.008l-2.014,0.504l-0.806,2.314l-1.309,1.611l-0.805-0.805l0.705-1.611l-0.503-1.812v-1.711l-1.208-1.209
			v-1.711l1.51-1.51v-1.51l2.215-0.504v-2.314l1.41-1.41l-0.213-1.744l-1.033-0.518l0.402-1.264l-1.119-1.119l-0.431-0.43
			l-0.631-1.033l-0.861-0.287l-1.234,1.062l-2.523,2.523l-1.561,1.559l-2.174-0.965l-1.208,1.105l2.517,2.619l-1.61,0.805v2.115
			l-0.755,0.754l-2.668-2.365l-1.409,2.215l-2.517-0.604l-1.057,1.057l-1.561-2.266l-2.315-1.309l-1.914-0.906l-0.805-2.215
			l-2.266-2.264l-2.97-0.555l-1.51-3.223l-2.315,1.107l-2.518-1.107l-2.819,0.705l-2.517,1.107l-2.719-2.719v-2.416v-2.115
			l-2.164-2.162l-1.107,1.107l-2.869-1.965l-1.208-1.207l-2.114,0.201l-1.415,0.258v-2.303l0.594-1.93l-1.633-0.52l-1.856,0.371
			l-2.375-1.113l-1.931-0.742l-1.559-0.744L308,426.278l-0.297,0.965h-1.485l-1.114-1.336h-1.633l-0.409-1.672l-0.928-0.928
			l-1.262-0.631h-1.521l-1.225,1.227h-1.93l-0.966,0.965l-1.596-0.188l-1.299-1.299h-2.449l-1.337-0.816l-1.745,0.111l-1.002-1.001
			h-2.004l-1.04-1.039l-0.689-1.492l-1.779,1.492l-0.172,1.435l-1.033,1.033l-0.229,2.41l-0.631,1.377l-0.689,1.205h-1.607
			l-0.688,1.951l-1.55-1.893l-1.952,0.172v-3.902l-1.951-1.838l-2.181-0.574l0.688-1.721l0.575-1.836l-1.608-1.607l-1.033-2.295
			l0.344-1.607l2.181-2.181l1.262-2.296l-0.573-2.066l1.836-0.459l2.755-1.722v-2.41l1.147-1.378l2.87-0.115l1.262-1.492
			l0.115-1.722l2.411-0.918l1.951-2.64l2.64,0.114l2.296-1.378l3.099,0.688l0.459-1.722l1.033-1.033l1.951,0.918l1.606,1.723
			l2.526,0.804l0.918,2.065l0.918,2.297l1.378-1.378l-0.23-3.329l-2.066-1.837v-3.902l1.837-0.459l0.574-0.574l-2.525-1.033
			l-1.493-1.722h10.508l15.204-0.115l4.821-1.722v-2.984l0.804-7.575h3.214l2.755-2.182v-2.984l2.066-0.804v-3.903l1.836-0.114
			l4.018-3.214l1.951,0.918L350.139,351.189z M357.125,379.581l-0.417,0.625l0.729,0.938l0.937-0.938L357.125,379.581z
			 M454.211,381.039h-1.146l-1.25-1.875l-0.729,0.417l-2.188-2.083l-1.668-1.771l0.626-1.875l1.667-0.521l0.624-1.042l-1.146-0.938
			l0.104-2.5l-0.729-0.209l-0.729-1.875l-1.562-0.104l-1.249-1.771l0.416-2.292l1.666-2.291l1.98,0.208l0.625,0.73l0.729,0.312
			l0.312-1.354l2.396-0.729l1.875-1.979l-1.25-1.354l1.667-1.042l1.874,0.73l0.521-1.563v-1.563h2.396l1.146,1.146l1.197-1.197
			l0.261-1.094l2.604-0.522l-0.886-0.884l-2.239-0.782v-0.833l2.604-0.73l2.708-0.729l1.354-1.354h1.771v-1.25l2.501-0.105
			l-1.354-1.354l2.188-0.104l0.833,0.834l-0.104-2.084l1.042-1.042l-1.146-1.353l0.729-1.146l1.25,1.25h1.563v-1.563l2.291,0.834
			l1.146-1.25l1.146-1.354h1.458l2.5-1.146l1.771,0.625h2.604l1.719-1.719l2.031,0.156l0.937,1.354h2.188l1.042,1.042l1.875-0.521
			h2.604l1.72-1.718l2.031-1.094l2.708-1.042h2.5l1.459,2.292v2.5l-2.188,1.979l-1.979,1.875l-2.604,0.209l-3.125,1.458
			l-2.813-1.042l-1.354,1.354l-3.229-0.104h-4.167l-1.562,1.667h-3.229l-2.396,1.354l0.729,1.667l-1.668,0.625l-1.979-0.208h-1.771
			l-0.209,1.146l-1.874-0.522v1.875l-1.876,1.354l-1.562,1.146v-1.77l-1.25,1.146l0.312,2.083h-1.25l-0.886-0.886v0.99v1.562
			l-0.911-0.912l-1.172,1.171l-0.989,0.991h-1.355l-1.041,1.353l-1.354,2.292h-2.187l-1.772,1.458v1.98l-1.77,0.729l-0.626,2.083
			l-1.458,1.458v2.604l-0.729,1.875l0.938,2.708l-0.834,2.709l1.146,1.771l0.521,1.874l-0.625,0.626l-1.77,0.833v-1.354
			L454.211,381.039z M520.569,278.644l-0.86,0.258l0.688,0.947v0.861h1.205v-1.636L520.569,278.644z M520.311,285.962l-0.603,0.947
			l-2.238,0.431l-1.464,0.775l1.119,0.517l-0.517,1.205l0.947,0.258h1.894l1.507-1.507l1.119-1.119l-0.388-1.679L520.311,285.962z
			 M513.166,284.412l-0.474,0.473l0.904,0.904l1.635-0.603v-1.377h-0.946L513.166,284.412z M511.917,287.124l-1.248-1.42
			l-0.947,0.947l-0.688,1.377v1.722l1.464,0.258l0.344,1.033l1.809-0.43l1.162-1.163l0.861-0.861l0.473-1.42h-1.291L511.917,287.124
			z M506.794,293.107l-0.56,0.559v1.077h1.162l0.431-1.377L506.794,293.107z M504.384,288.717l-0.603-0.603h-1.895v1.291
			l-1.033,1.033l0.603,0.603l2.066-0.43l0.775,0.775l1.808-0.431l0.517-1.205l1.291,0.43l-0.688-1.549l-1.162-1.163L504.384,288.717
			z M513.94,274.34l-0.517,1.033l0.904,0.904l0.86-0.861L513.94,274.34z M512.046,276.75h-1.378v1.55l1.464,1.463v1.206l1.291-0.603
			l-0.774-1.635L512.046,276.75z M503.437,281.227h-1.205l-0.259,0.258l0.99,0.99L503.437,281.227z M504.47,283.207l-0.818,0.817
			l0.818,0.904l0.947-0.086L504.47,283.207z M505.245,279.419v1.119h1.205l-0.258-1.292L505.245,279.419z M506.923,282.217v0.99
			h0.99l-0.774-0.775L506.923,282.217z M507.914,284.499l0.431,0.43l0.774-0.775L507.914,284.499z M509.119,279.936v1.205
			l1.033,0.086v-1.292H509.119z M507.57,277.525l0.603,1.119l0.56-0.56l-0.56-0.56H507.57z M496.463,284.756l-0.646,0.646
			l1.119,1.119l1.249,0.043v-2.066l-0.861-1.119L496.463,284.756z M499.305,283.379l0.43,1.205h0.861v-1.033L499.305,283.379z
			 M494.484,276.492l-0.861,0.861v0.947l-0.99,0.99l-1.765-1.248l-1.463,0.775v1.033l-1.809-1.292l-1.377,0.517l0.43,2.066
			l1.292-0.43v1.377l1.377,0.344l1.249-1.249l1.765-0.731l1.464,0.43h2.151l1.55-1.549l-1.463-1.464l0.989-0.99l-1.679-0.99
			L494.484,276.492z M489.577,274.34h-1.895l-1.119-1.12l-0.774,1.55l0.99,0.99l0.387,1.163l2.239-0.775l0.774,0.775l1.464-0.603
			l0.603,0.603v-1.292l-0.99-0.99h-0.904L489.577,274.34z M491.255,283.422h-0.731l0.258,1.077l1.55,0.086L491.255,283.422z
			 M491.556,285.704l-0.774,0.775l0.603,0.603l1.464,0.344l-0.947-0.947L491.556,285.704z M497.841,274.598v1.119h0.86l0.861-0.861
			L497.841,274.598z M224.704,384.719l1.787,0.401l1.531-0.438l0.583-1.13l1.385,0.218l1.295,1.295l0.054,1.769l1.057,0.328
			l0.219,1.386l1.641,0.291l0.364-1.312l-0.893-0.893l0.765-0.767l0.493,0.493l1.567,1.312v1.97l-0.219,1.713l0.911,1.494
			l0.912,0.62l0.328,2.225l-0.801,1.676l-3.828,1.933l-5.797-6.89L224.704,384.719z M461.504,387.185l-1.667,0.833l-1.25,0.417
			l0.312,2.709l0.208,1.459l1.146,0.312l0.417,2.188l2.188,0.209l0.729-1.771l-1.042-1.771l0.104-1.979L461.504,387.185z
			 M424.627,378.123l-2.291,0.625l-1.355,1.771l-1.041,1.354l0.729,1.979l1.668,0.626l1.562,0.623l1.459-1.041l1.771,0.312
			l0.938-2.187l-1.458-1.876l-0.104-1.562L424.627,378.123z"/>
	</g>
	<circle fill="#010101" stroke="#FFFFFF" stroke-width="0.7983" cx="313.586" cy="400.398" r="3.635"/>
	<circle fill="#010101" stroke="#FFFFFF" stroke-width="0.7983" cx="911.939" cy="408.034" r="3.636"/>
	<rect x="892.939" y="386.729" fill="none" width="227.989" height="37.498"/>
	<text transform="matrix(1 0 0 1 892.9395 395.9585)"><tspan x="0" y="0" font-family="'Intro'" font-size="13">Петропавловск-Камчатский</tspan></text>
	<rect x="294.576" y="409.669" fill="none" width="227.989" height="37.498"/>
	<text transform="matrix(1 0 0 1 294.5762 418.8989)"><tspan x="0" y="0" font-family="'Intro'" font-size="13">Санкт-Петербург</tspan></text>
</g>
<g id="Layer_2" >
	<g transform="translate(-600)">
		<g>
			<g>
				<defs>
					<polygon id="SVGID_1_" points="276.509,226.474 312.43,264.332 358.208,255.936 294.498,223.174 					"/>
				</defs>
				<use xlink:href="#SVGID_1_"  overflow="visible" fill="#3E65A8"/>
				<clipPath id="SVGID_2_">
					<use xlink:href="#SVGID_1_"  overflow="visible"/>
				</clipPath>
				
<!-- 					<rect x="274.058" y="205.156" transform="matrix(-0.8061 0.5918 -0.5918 -0.8061 715.9205 247.8284)" clip-path="url(#SVGID_2_)" fill="#3E65A8" stroke="#010101" stroke-width="0.7983" width="86.6" height="72.097"/> -->
				<use xlink:href="#SVGID_1_"  overflow="visible" fill="none" stroke="#010101" stroke-width="0.7983"/>
			</g>
			<g>
				<defs>
					<path id="SVGID_3_" d="M245.53,274.148c0,0-9.157,2.908-8.544,6.249c0.313,1.706,6.389,8.1,18.939,11.747l192.253-35.26
						c0.17-0.572,0.218-1.125,0.123-1.647c-0.209-1.142-3.292-3.481-7.997-5.772l-23.916,4.386l-1.523-8.307l8.158-1.497
						c-4.458-0.671-9.094-0.783-13.549,0.033L245.53,274.148z"/>
				</defs>
				<use xlink:href="#SVGID_3_"  overflow="visible" fill="#3E65A8"/>
				<clipPath id="SVGID_4_">
					<use xlink:href="#SVGID_3_"  overflow="visible"/>
				</clipPath>
				
					<rect x="332.585" y="160.146" transform="matrix(0.1804 0.9836 -0.9836 0.1804 542.5696 -118.4675)" clip-path="url(#SVGID_4_)" fill="#3E65A8" stroke="#010101" stroke-width="0.7983" width="19.575" height="212.386"/>
				<use xlink:href="#SVGID_3_"  overflow="visible" fill="none" stroke="#010101" stroke-width="0.7983"/>
			</g>
			<g>
				<defs>
					<polygon id="SVGID_5_" points="234.604,245.229 257.146,272.019 278.654,268.074 240.392,244.168 					"/>
				</defs>
				<use xlink:href="#SVGID_5_"  overflow="visible" fill="#3E65A8"/>
				<clipPath id="SVGID_6_">
					<use xlink:href="#SVGID_5_"  overflow="visible"/>
				</clipPath>
				
<!-- 					<rect x="241.42" y="237.048" transform="matrix(0.1804 0.9836 -0.9836 0.1804 462.7727 -42.0673)" clip-path="url(#SVGID_6_)" fill="#3E65A8" stroke="#010101" stroke-width="0.7983" width="30.417" height="39.206"/> -->
				<use xlink:href="#SVGID_5_"  overflow="visible" fill="none" stroke="#010101" stroke-width="0.7983"/>
			</g>
			<g>
				<defs>
					<path id="SVGID_7_" d="M255.912,292.148c8.956,2.604,21.213,3.811,37.044,0.906l137.159-25.156
						c8.911-1.635,16.819-6.846,18.063-11.014L255.912,292.148z"/>
				</defs>
				<use xlink:href="#SVGID_7_"  overflow="visible" fill="#3E65A8"/>
				<clipPath id="SVGID_8_">
					<use xlink:href="#SVGID_7_"  overflow="visible"/>
				</clipPath>
				
					<rect x="348.94" y="180.506" transform="matrix(0.1804 0.9836 -0.9836 0.1804 562.7686 -118.896)" clip-path="url(#SVGID_8_)" fill="#3E65A8" stroke="#010101" stroke-width="0.7983" width="7.575" height="195.473"/>
				<use xlink:href="#SVGID_7_"  overflow="visible" fill="none" stroke="#010101" stroke-width="0.7983"/>
			</g>
			<g>
				<defs>
					<polygon id="SVGID_9_" points="231.802,245.743 253.733,272.645 257.146,272.019 234.604,245.229 					"/>
				</defs>
				<use xlink:href="#SVGID_9_"  overflow="visible" fill="#3E65A8"/>
				<clipPath id="SVGID_10_">
					<use xlink:href="#SVGID_9_"  overflow="visible"/>
				</clipPath>
				
<!-- 					<rect x="229.266" y="248.787" transform="matrix(0.1804 0.9836 -0.9836 0.1804 455.0019 -28.2859)" clip-path="url(#SVGID_10_)" fill="#3E65A8" stroke="#010101" stroke-width="0.7983" width="30.416" height="20.188"/> -->
				<use xlink:href="#SVGID_9_"  overflow="visible" fill="none" stroke="#010101" stroke-width="0.7983"/>
			</g>
			<g>
				<defs>
					<path id="SVGID_11_" d="M393.181,254.368c0.245,1.337,1.527,2.222,2.864,1.977c1.337-0.245,2.222-1.527,1.977-2.864
						c-0.245-1.338-1.527-2.223-2.865-1.977C393.819,251.749,392.936,253.031,393.181,254.368"/>
				</defs>
				<use xlink:href="#SVGID_11_"  overflow="visible" fill="#3E65A8"/>
				<clipPath id="SVGID_12_">
					<use xlink:href="#SVGID_11_"  overflow="visible"/>
				</clipPath>
				
					<rect x="393.14" y="251.463" transform="matrix(0.1804 0.9836 -0.9836 0.1804 574.0059 -180.9891)" clip-path="url(#SVGID_12_)" fill="#3E65A8" stroke="#010101" stroke-width="0.7983" width="4.922" height="4.922"/>
				<use xlink:href="#SVGID_11_"  overflow="visible" fill="none" stroke="#010101" stroke-width="0.7983"/>
			</g>
			<g>
				<defs>
					<path id="SVGID_13_" d="M384.218,256.012c0.246,1.338,1.528,2.223,2.864,1.977c1.337-0.245,2.222-1.527,1.977-2.864
						s-1.527-2.222-2.865-1.977C384.857,253.393,383.973,254.675,384.218,256.012"/>
				</defs>
				<use xlink:href="#SVGID_13_"  overflow="visible" fill="#3E65A8"/>
				<clipPath id="SVGID_14_">
					<use xlink:href="#SVGID_13_"  overflow="visible"/>
				</clipPath>
				
					<rect x="384.177" y="253.107" transform="matrix(0.1803 0.9836 -0.9836 0.1803 568.2927 -170.819)" clip-path="url(#SVGID_14_)" fill="#3E65A8" stroke="#010101" stroke-width="0.7983" width="4.922" height="4.922"/>
				<use xlink:href="#SVGID_13_"  overflow="visible" fill="none" stroke="#010101" stroke-width="0.7983"/>
			</g>
			<g>
				<defs>
					<path id="SVGID_15_" d="M375.256,257.656c0.245,1.336,1.528,2.221,2.864,1.977c1.336-0.246,2.221-1.527,1.976-2.865
						c-0.245-1.337-1.527-2.222-2.864-1.977C375.896,255.036,375.01,256.318,375.256,257.656"/>
				</defs>
				<use xlink:href="#SVGID_15_"  overflow="visible" fill="#3E65A8"/>
				<clipPath id="SVGID_16_">
					<use xlink:href="#SVGID_15_"  overflow="visible"/>
				</clipPath>
				
					<rect x="375.215" y="254.751" transform="matrix(0.1804 0.9836 -0.9836 0.1804 562.5475 -160.6632)" clip-path="url(#SVGID_16_)" fill="#3E65A8" stroke="#010101" stroke-width="0.7983" width="4.922" height="4.921"/>
				<use xlink:href="#SVGID_15_"  overflow="visible" fill="none" stroke="#010101" stroke-width="0.7983"/>
			</g>
			<g>
				<defs>
					<path id="SVGID_17_" d="M366.293,259.299c0.245,1.338,1.528,2.223,2.865,1.977c1.337-0.244,2.222-1.527,1.976-2.863
						c-0.245-1.338-1.527-2.223-2.864-1.977C366.933,256.68,366.047,257.963,366.293,259.299"/>
				</defs>
				<use xlink:href="#SVGID_17_"  overflow="visible" fill="#3E65A8"/>
				<clipPath id="SVGID_18_">
					<use xlink:href="#SVGID_17_"  overflow="visible"/>
				</clipPath>
				
					<rect x="366.253" y="256.395" transform="matrix(0.1805 0.9836 -0.9836 0.1805 556.7789 -150.5188)" clip-path="url(#SVGID_18_)" fill="#3E65A8" stroke="#010101" stroke-width="0.7983" width="4.922" height="4.922"/>
				<use xlink:href="#SVGID_17_"  overflow="visible" fill="none" stroke="#010101" stroke-width="0.7983"/>
			</g>
			<g>
				<defs>
					<path id="SVGID_19_" d="M357.332,260.943c0.245,1.337,1.527,2.222,2.864,1.977c1.337-0.246,2.222-1.527,1.977-2.865
						c-0.246-1.336-1.527-2.221-2.864-1.977C357.971,258.324,357.086,259.605,357.332,260.943"/>
				</defs>
				<use xlink:href="#SVGID_19_"  overflow="visible" fill="#3E65A8"/>
				<clipPath id="SVGID_20_">
					<use xlink:href="#SVGID_19_"  overflow="visible"/>
				</clipPath>
				
					<rect x="357.29" y="258.039" transform="matrix(0.1804 0.9836 -0.9836 0.1804 551.0658 -140.3499)" clip-path="url(#SVGID_20_)" fill="#3E65A8" stroke="#010101" stroke-width="0.7983" width="4.923" height="4.921"/>
				<use xlink:href="#SVGID_19_"  overflow="visible" fill="none" stroke="#010101" stroke-width="0.7983"/>
			</g>
			<g>
				<defs>
					<path id="SVGID_21_" d="M348.369,262.587c0.245,1.337,1.526,2.222,2.864,1.977c1.337-0.245,2.222-1.527,1.977-2.864
						c-0.246-1.338-1.528-2.223-2.865-1.977C349.008,259.968,348.124,261.25,348.369,262.587"/>
				</defs>
				<use xlink:href="#SVGID_21_"  overflow="visible" fill="#3E65A8"/>
				<clipPath id="SVGID_22_">
					<use xlink:href="#SVGID_21_"  overflow="visible"/>
				</clipPath>
				
					<rect x="348.329" y="259.682" transform="matrix(0.1804 0.9836 -0.9836 0.1804 545.361 -130.1762)" clip-path="url(#SVGID_22_)" fill="#3E65A8" stroke="#010101" stroke-width="0.7983" width="4.922" height="4.922"/>
				<use xlink:href="#SVGID_21_"  overflow="visible" fill="none" stroke="#010101" stroke-width="0.7983"/>
			</g>
			<g>
				<defs>
					<path id="SVGID_23_" d="M339.406,264.23c0.245,1.338,1.527,2.223,2.864,1.977c1.337-0.245,2.222-1.527,1.977-2.864
						s-1.527-2.222-2.865-1.977C340.046,261.611,339.161,262.894,339.406,264.23"/>
				</defs>
				<use xlink:href="#SVGID_23_"  overflow="visible" fill="#3E65A8"/>
				<clipPath id="SVGID_24_">
					<use xlink:href="#SVGID_23_"  overflow="visible"/>
				</clipPath>
				
					<rect x="339.366" y="261.326" transform="matrix(0.1803 0.9836 -0.9836 0.1803 539.6462 -120.0055)" clip-path="url(#SVGID_24_)" fill="#3E65A8" stroke="#010101" stroke-width="0.7983" width="4.922" height="4.922"/>
				<use xlink:href="#SVGID_23_"  overflow="visible" fill="none" stroke="#010101" stroke-width="0.7983"/>
			</g>
			<g>
				<defs>
					<path id="SVGID_25_" d="M330.444,265.875c0.246,1.336,1.528,2.221,2.865,1.977c1.336-0.246,2.222-1.527,1.977-2.865
						c-0.245-1.337-1.528-2.222-2.865-1.977C331.083,263.256,330.199,264.537,330.444,265.875"/>
				</defs>
				<use xlink:href="#SVGID_25_"  overflow="visible" fill="#3E65A8"/>
				<clipPath id="SVGID_26_">
					<use xlink:href="#SVGID_25_"  overflow="visible"/>
				</clipPath>
				
					<rect x="330.404" y="262.97" transform="matrix(0.1804 0.9836 -0.9836 0.1804 533.9032 -109.8501)" clip-path="url(#SVGID_26_)" fill="#3E65A8" stroke="#010101" stroke-width="0.7983" width="4.922" height="4.922"/>
				<use xlink:href="#SVGID_25_"  overflow="visible" fill="none" stroke="#010101" stroke-width="0.7983"/>
			</g>
			<g>
				<defs>
					<path id="SVGID_27_" d="M321.481,267.519c0.245,1.337,1.527,2.222,2.865,1.976c1.337-0.244,2.221-1.526,1.976-2.863
						c-0.245-1.338-1.526-2.223-2.864-1.977C322.121,264.898,321.236,266.182,321.481,267.519"/>
				</defs>
				<use xlink:href="#SVGID_27_"  overflow="visible" fill="#3E65A8"/>
				<clipPath id="SVGID_28_">
					<use xlink:href="#SVGID_27_"  overflow="visible"/>
				</clipPath>
				
					<rect x="321.441" y="264.613" transform="matrix(0.1804 0.9836 -0.9836 0.1804 528.1736 -99.6871)" clip-path="url(#SVGID_28_)" fill="#3E65A8" stroke="#010101" stroke-width="0.7983" width="4.922" height="4.922"/>
				<use xlink:href="#SVGID_27_"  overflow="visible" fill="none" stroke="#010101" stroke-width="0.7983"/>
			</g>
			<g>
				<defs>
					<path id="SVGID_29_" d="M312.52,269.162c0.245,1.337,1.527,2.222,2.864,1.977c1.337-0.245,2.221-1.527,1.976-2.864
						c-0.245-1.337-1.526-2.222-2.863-1.978C313.159,266.543,312.274,267.825,312.52,269.162"/>
				</defs>
				<use xlink:href="#SVGID_29_"  overflow="visible" fill="#3E65A8"/>
				<clipPath id="SVGID_30_">
					<use xlink:href="#SVGID_29_"  overflow="visible"/>
				</clipPath>
				
					<rect x="312.478" y="266.258" transform="matrix(0.1804 0.9836 -0.9836 0.1804 522.4235 -89.5371)" clip-path="url(#SVGID_30_)" fill="#3E65A8" stroke="#010101" stroke-width="0.7983" width="4.923" height="4.921"/>
				<use xlink:href="#SVGID_29_"  overflow="visible" fill="none" stroke="#010101" stroke-width="0.7983"/>
			</g>
			<g>
				<defs>
					<path id="SVGID_31_" d="M303.557,270.806c0.245,1.337,1.527,2.222,2.864,1.978c1.338-0.246,2.223-1.528,1.977-2.865
						c-0.245-1.337-1.527-2.222-2.865-1.977C304.196,268.187,303.312,269.469,303.557,270.806"/>
				</defs>
				<use xlink:href="#SVGID_31_"  overflow="visible" fill="#3E65A8"/>
				<clipPath id="SVGID_32_">
					<use xlink:href="#SVGID_31_"  overflow="visible"/>
				</clipPath>
				
					<rect x="303.518" y="267.901" transform="matrix(0.1805 0.9836 -0.9836 0.1805 516.6694 -79.3914)" clip-path="url(#SVGID_32_)" fill="#3E65A8" stroke="#010101" stroke-width="0.7983" width="4.921" height="4.921"/>
				<use xlink:href="#SVGID_31_"  overflow="visible" fill="none" stroke="#010101" stroke-width="0.7983"/>
			</g>
			<g>
				<defs>
					<path id="SVGID_33_" d="M294.595,272.449c0.245,1.338,1.527,2.223,2.864,1.977c1.337-0.244,2.222-1.527,1.977-2.864
						c-0.246-1.337-1.528-2.222-2.865-1.976C295.234,269.83,294.35,271.113,294.595,272.449"/>
				</defs>
				<use xlink:href="#SVGID_33_"  overflow="visible" fill="#3E65A8"/>
				<clipPath id="SVGID_34_">
					<use xlink:href="#SVGID_33_"  overflow="visible"/>
				</clipPath>
				
					<rect x="294.554" y="269.545" transform="matrix(0.1803 0.9836 -0.9836 0.1803 510.9996 -69.1918)" clip-path="url(#SVGID_34_)" fill="#3E65A8" stroke="#010101" stroke-width="0.7983" width="4.922" height="4.922"/>
				<use xlink:href="#SVGID_33_"  overflow="visible" fill="none" stroke="#010101" stroke-width="0.7983"/>
			</g>
			<g>
				<defs>
					<polygon id="SVGID_35_" points="407.528,246.89 406.52,255.66 413.31,254.416 411.786,246.108 					"/>
				</defs>
				<use xlink:href="#SVGID_35_"  overflow="visible" fill="#3E65A8"/>
				<clipPath id="SVGID_36_">
					<use xlink:href="#SVGID_35_"  overflow="visible"/>
				</clipPath>
				
					<rect x="404.93" y="247.433" transform="matrix(0.1804 0.9836 -0.9836 0.1804 582.1238 -196.81)" clip-path="url(#SVGID_36_)" fill="#3E65A8" stroke="#010101" stroke-width="0.7983" width="8.446" height="6.903"/>
				<use xlink:href="#SVGID_35_"  overflow="visible" fill="none" stroke="#010101" stroke-width="0.7983"/>
			</g>
			<g>
				<defs>
					<polygon id="SVGID_37_" points="313.6,285.295 283.544,341.408 307.483,337.018 363.417,276.157 					"/>
				</defs>
				<use xlink:href="#SVGID_37_"  overflow="visible" fill="#3E65A8"/>
				<clipPath id="SVGID_38_">
					<use xlink:href="#SVGID_37_"  overflow="visible"/>
				</clipPath>
				
<!-- 					<rect x="272.325" y="269.022" transform="matrix(-0.981 -0.1942 0.1942 -0.981 580.8287 674.5138)" clip-path="url(#SVGID_38_)" fill="#3E65A8" stroke="#010101" stroke-width="0.7983" width="102.311" height="79.522"/> -->
				<use xlink:href="#SVGID_37_"  overflow="visible" fill="none" stroke="#010101" stroke-width="0.7983"/>
			</g>
			<g>
				<defs>
					
						<rect id="SVGID_39_" x="280.6" y="291.247" transform="matrix(-0.9836 0.1803 -0.1803 -0.9836 618.445 535.4767)" width="8.561" height="9.209"/>
				</defs>
				<use xlink:href="#SVGID_39_"  overflow="visible" fill="#3E65A8"/>
				<clipPath id="SVGID_40_">
					<use xlink:href="#SVGID_39_"  overflow="visible"/>
				</clipPath>
				
					<rect x="280.276" y="291.571" transform="matrix(0.1804 0.9836 -0.9836 0.1804 524.49 -37.7238)" clip-path="url(#SVGID_40_)" fill="#3E65A8" stroke="#010101" stroke-width="0.7983" width="9.209" height="8.562"/>
				<use xlink:href="#SVGID_39_"  overflow="visible" fill="none" stroke="#010101" stroke-width="0.7983"/>
			</g>
			<g>
				<defs>
					<path id="SVGID_41_" d="M288.261,290.551l1.661,9.056l1.655-0.304c1.229-0.226,2.043-1.405,1.818-2.635l-0.844-4.604
						c-0.226-1.23-1.406-2.043-2.635-1.818L288.261,290.551z"/>
				</defs>
				<use xlink:href="#SVGID_41_"  overflow="visible" fill="#3E65A8"/>
				<clipPath id="SVGID_42_">
					<use xlink:href="#SVGID_41_"  overflow="visible"/>
				</clipPath>
				
					<rect x="286.429" y="292.75" transform="matrix(0.1804 0.9836 -0.9836 0.1804 528.4152 -44.7045)" clip-path="url(#SVGID_42_)" fill="#3E65A8" stroke="#010101" stroke-width="0.7983" width="9.208" height="3.946"/>
				<use xlink:href="#SVGID_41_"  overflow="visible" fill="none" stroke="#010101" stroke-width="0.7983"/>
			</g>
			<g>
				<defs>
					<path id="SVGID_43_" d="M270.792,293.754c-2.977,0.547-5.908,4.445-5.673,5.721c0.233,1.275,4.358,3.882,7.334,3.336
						l9.048-1.66l-1.661-9.056L270.792,293.754z"/>
				</defs>
				<use xlink:href="#SVGID_43_"  overflow="visible" fill="#3E65A8"/>
				<clipPath id="SVGID_44_">
					<use xlink:href="#SVGID_43_"  overflow="visible"/>
				</clipPath>
				
					<rect x="268.291" y="290.143" transform="matrix(0.1804 0.9836 -0.9836 0.1804 516.8145 -24.1422)" clip-path="url(#SVGID_44_)" fill="#3E65A8" stroke="#010101" stroke-width="0.7983" width="9.207" height="15.811"/>
				<use xlink:href="#SVGID_43_"  overflow="visible" fill="none" stroke="#010101" stroke-width="0.7983"/>
			</g>
		</g>
		<g>
			<defs>
				<path id="SVGID_45_" d="M414.425,245.625l1.523,8.307l23.916-4.387c-4.597-2.24-10.741-4.432-17.281-5.416L414.425,245.625z"/>
			</defs>
			<clipPath id="SVGID_46_">
				<use xlink:href="#SVGID_45_"  overflow="visible"/>
			</clipPath>
			
				<rect x="422.922" y="235.428" transform="matrix(0.1804 0.9836 -0.9836 0.1804 593.6149 -217.2146)" clip-path="url(#SVGID_46_)" fill="#070507" stroke="#010101" stroke-width="0.7983" width="8.445" height="24.315"/>
			<use xlink:href="#SVGID_45_"  overflow="visible" fill="none" stroke="#010101" stroke-width="0.7983"/>
		</g>
	</g>
	 <animateTransform attributeName="transform"
                          type="translate"
                          from="0 0"
                          to="1600 0"
                          begin="0s"
                          dur="16s"
                          repeatCount="indefinite"
        />
</g>
<g id="Layer_3">
	<g transform="translate(-800)">
		<path fill="#D6EDF4" stroke="#010101" stroke-width="1.5" d="M632.13,151.099c15.804-16.048,31.944-5.077,41.464-7.498
			c11.297-2.873,22.091-3.903,33.516-1.626c11.064,2.206,19.548,7.652,29.882,10.953c10.636,3.397,22.205,7.114,25.442,19.31
			c3.664,13.806-12.587,21.889-23.957,24.61c-21.168,5.068-42.18-0.438-63.486,0.575c-17.555,0.833-33.082,3.2-50.175-2.216
			c-13.419-4.252-22.225-13.53-15.447-27.805C614.779,156.003,623.014,156.23,632.13,151.099"/>
	</g>
	<animateTransform attributeName="transform"
                          type="translate"
                          from="1800 0"
                          to="0 0"
                          begin="0s"
                          dur="20s"
                          repeatCount="indefinite"
        />
</g>
<g id="Layer_5">
	<g transform="translate(-800)">
		<path fill="#D6EDF4" stroke="#010101" stroke-width="1.5" d="M103.773,322.629c15.804-16.048,31.944-5.077,41.464-7.498
			c11.297-2.873,22.091-3.903,33.516-1.626c11.064,2.206,19.548,7.652,29.882,10.953c10.636,3.396,22.205,7.113,25.442,19.31
			c3.664,13.806-12.587,21.889-23.957,24.61c-21.168,5.068-42.18-0.438-63.486,0.574c-17.555,0.834-33.082,3.201-50.175-2.216
			c-13.419-4.253-22.225-13.53-15.447-27.805C86.422,327.534,94.657,327.761,103.773,322.629"/>
	</g>
	<animateTransform attributeName="transform"
                          type="translate"
                          from="1800 0"
                          to="0 0"
                          begin="0s"
                          dur="22s"
                          repeatCount="indefinite"
        />
</g>
<g id="Layer_4">
	<g transform="translate(-1200)">
		<path fill="#D6EDF4" stroke="#010101" stroke-width="1.5" d="M860.339,231.486c23.101-23.458,46.694-7.421,60.609-10.96
			c16.514-4.2,32.291-5.706,48.991-2.377c16.174,3.225,28.574,11.186,43.68,16.01c15.547,4.966,32.458,10.399,37.19,28.227
			c5.355,20.18-18.399,31.996-35.02,35.974c-30.941,7.408-61.655-0.64-92.8,0.84c-25.661,1.218-48.357,4.678-73.343-3.24
			c-19.615-6.216-32.487-19.777-22.58-40.643C834.977,238.656,847.014,238.987,860.339,231.486"/>
	</g>
	<animateTransform attributeName="transform"
                          type="translate"
                          from="1800 0"
                          to="0 0"
                          begin="0s"
                          dur="25s"
                          repeatCount="indefinite"
        />
</g>
</svg>
