<?xml version="1.0" encoding="UTF-8"?>
<svg width="41px" height="41px" viewBox="0 0 41 41" version="1.1" xmlns="http://www.w3.org/2000/svg" xmlns:xlink="http://www.w3.org/1999/xlink">
    <!-- Generator: Sketch 40.1 (33804) - http://www.bohemiancoding.com/sketch -->
    <title>arrow_right_mobile</title>
    <desc>Created with Sketch.</desc>
    <defs></defs>
    <g id="Page-1" stroke="none" stroke-width="1" fill="none" fill-rule="evenodd">
        <g id="arrow_right_mobile" transform="translate(1.000000, 1.000000)">
            <path d="M19.2509,0.5 C29.6069,0.5 38.0019,8.895 38.0019,19.251 C38.0019,29.607 29.6069,38.002 19.2509,38.002 C8.8949,38.002 0.4999,29.607 0.4999,19.251 C0.4999,8.895 8.8949,0.5 19.2509,0.5" id="Fill-1" fill="#0F1F2A"></path>
            <path d="M19.2509,0.5 C29.6069,0.5 38.0019,8.895 38.0019,19.251 C38.0019,29.607 29.6069,38.002 19.2509,38.002 C8.8949,38.002 0.4999,29.607 0.4999,19.251 C0.4999,8.895 8.8949,0.5 19.2509,0.5 L19.2509,0.5 Z" id="Stroke-3" stroke="#FEFEFE" stroke-width="3"></path>
            <path d="M15.6464,11.8658 C16.3434,11.3928 16.8854,11.0248 17.5494,10.5738 C18.6374,11.8508 19.6884,13.0748 20.7274,14.3088 C21.8244,15.6098 22.9044,16.9248 24.0024,18.2238 C24.5084,18.8198 24.5474,19.4418 24.0674,20.0328 C22.0164,22.5598 19.9454,25.0698 17.8764,27.5828 C17.7874,27.6908 17.6564,27.7648 17.4674,27.9178 C16.8974,27.5188 16.3364,27.1258 15.6194,26.6248 C17.4834,24.1108 19.2764,21.6928 21.1394,19.1808 C19.3244,16.7638 17.5354,14.3818 15.6464,11.8658" id="Fill-5" fill="#DEC28A"></path>
        </g>
    </g>
</svg>