<?xml version="1.0" encoding="UTF-8"?>
<svg width="41px" height="41px" viewBox="0 0 41 41" version="1.1" xmlns="http://www.w3.org/2000/svg" xmlns:xlink="http://www.w3.org/1999/xlink">
    <!-- Generator: Sketch 40.1 (33804) - http://www.bohemiancoding.com/sketch -->
    <title>arrow_left_mobile</title>
    <desc>Created with Sketch.</desc>
    <defs></defs>
    <g id="Page-1" stroke="none" stroke-width="1" fill="none" fill-rule="evenodd">
        <g id="arrow_left_mobile" transform="translate(1.000000, 1.000000)">
            <path d="M19.2509,38.0018 C8.8949,38.0018 0.4999,29.6068 0.4999,19.2508 C0.4999,8.8948 8.8949,0.4998 19.2509,0.4998 C29.6069,0.4998 38.0019,8.8948 38.0019,19.2508 C38.0019,29.6068 29.6069,38.0018 19.2509,38.0018" id="Fill-1" fill="#0F1F2A"></path>
            <path d="M19.2509,38.0018 C8.8949,38.0018 0.4999,29.6068 0.4999,19.2508 C0.4999,8.8948 8.8949,0.4998 19.2509,0.4998 C29.6069,0.4998 38.0019,8.8948 38.0019,19.2508 C38.0019,29.6068 29.6069,38.0018 19.2509,38.0018 L19.2509,38.0018 Z" id="Stroke-3" stroke="#FEFEFE" stroke-width="3"></path>
            <path d="M22.8554,26.636 C22.1584,27.109 21.6164,27.477 20.9524,27.928 C19.8644,26.651 18.8134,25.427 17.7744,24.193 C16.6774,22.892 15.5974,21.577 14.4994,20.278 C13.9934,19.682 13.9544,19.06 14.4344,18.469 C16.4854,15.942 18.5564,13.432 20.6254,10.919 C20.7144,10.811 20.8454,10.737 21.0344,10.584 C21.6044,10.983 22.1654,11.376 22.8824,11.877 C21.0184,14.391 19.2254,16.809 17.3624,19.321 C19.1774,21.738 20.9664,24.12 22.8554,26.636" id="Fill-5" fill="#DEC28A"></path>
        </g>
    </g>
</svg>