<?xml version="1.0" encoding="UTF-8"?>
<svg width="11px" height="19px" viewBox="0 0 11 19" version="1.1" xmlns="http://www.w3.org/2000/svg" xmlns:xlink="http://www.w3.org/1999/xlink">
    <!-- Generator: Sketch 40.1 (33804) - http://www.bohemiancoding.com/sketch -->
    <title>arrow_right</title>
    <desc>Created with Sketch.</desc>
    <defs>
        <polygon id="path-1" points="0 18.6123 10.616 18.6123 10.616 0.0003 0 0.0003"></polygon>
    </defs>
    <g id="Page-1" stroke="none" stroke-width="1" fill="none" fill-rule="evenodd">
        <g id="arrow_right">
            <mask id="mask-2" fill="white">
                <use xlink:href="#path-1"></use>
            </mask>
            <g id="Clip-2"></g>
            <path d="M7.4878,9.3019 C7.3978,9.2229 7.3338,9.1739 7.2778,9.1179 C4.9988,6.8399 2.7208,4.5609 0.4408,2.2839 C0.2638,2.1059 0.1288,1.9039 0.0648,1.6599 C0.0448,1.5859 0.0458,1.5059 0.0358,1.4289 C-0.0022,1.1329 0.0288,0.9099 0.1838,0.6539 C0.3768,0.3379 0.6138,0.1499 0.9968,0.0439 C1.1728,-0.0051 1.3448,-0.0061 1.5138,0.0079 C1.7018,0.0239 1.8708,0.1259 2.0308,0.2239 C2.1368,0.2879 2.2328,0.3739 2.3208,0.4629 C4.9278,3.0669 7.5328,5.6729 10.1398,8.2779 C10.3508,8.4889 10.5148,8.7299 10.5818,9.0189 C10.6368,9.2569 10.6278,9.5019 10.5388,9.7379 C10.4648,9.9349 10.3548,10.1119 10.2088,10.2579 C7.5598,12.9109 4.9078,15.5619 2.2568,18.2139 C2.0628,18.4079 1.8058,18.4919 1.5678,18.6079 C1.1778,18.6279 0.8048,18.5919 0.4958,18.3139 C0.3118,18.1499 0.2218,18.0349 0.1318,17.8599 C0.0738,17.7489 0.0328,17.6379 0.0338,17.5099 C0.0338,17.4669 0.0068,17.4229 0.0018,17.3789 C-0.0032,17.3359 0.0028,17.2909 0.0088,17.2469 C0.0148,17.2099 0.0338,17.1739 0.0348,17.1369 C0.0388,16.8509 0.1888,16.6299 0.3528,16.4159 C0.3778,16.3839 0.4098,16.3579 0.4388,16.3299 C2.7168,14.0509 4.9958,11.7729 7.2748,9.4949 C7.3318,9.4379 7.3938,9.3869 7.4878,9.3019" id="Fill-1" fill="#132132" mask="url(#mask-2)"></path>
        </g>
    </g>
</svg>