<?xml version="1.0" encoding="UTF-8"?>
<svg width="89px" height="81px" viewBox="0 0 89 81" version="1.1" xmlns="http://www.w3.org/2000/svg" xmlns:xlink="http://www.w3.org/1999/xlink">
    <!-- Generator: Sketch 40.1 (33804) - http://www.bohemiancoding.com/sketch -->
    <title>book_big</title>
    <desc>Created with Sketch.</desc>
    <defs></defs>
    <g id="Page-1" stroke="none" stroke-width="1" fill="none" fill-rule="evenodd">
        <g id="book_big" fill="#E1C88D">
            <path d="M0.0017,40.895 C0.0017,30.746 -0.0033,20.596 0.0047,10.447 C0.0067,7.995 1.1317,6.885 3.5737,6.874 C4.9927,6.868 6.4137,6.914 7.8297,6.852 C8.6077,6.818 8.8087,7.068 8.8067,7.833 C8.7837,18.507 8.7937,29.181 8.7937,39.855 C8.7937,46.55 8.7887,53.244 8.7927,59.939 C8.7947,61.959 9.9807,63.154 12.0057,63.182 C16.1997,63.239 20.3987,63.171 24.5857,63.366 C29.2357,63.582 33.7947,64.428 37.9097,66.746 C39.4207,67.597 40.7737,68.764 42.0917,69.91 C43.4697,71.108 45.2677,71.288 46.4967,70.015 C50.0597,66.322 54.6057,64.766 59.4817,63.893 C64.6487,62.968 69.8697,63.211 75.0777,63.185 C75.2327,63.184 75.3877,63.175 75.5407,63.186 C79.3907,63.458 80.0917,61.736 80.0687,58.601 C79.9997,48.948 80.0447,39.295 80.0437,29.643 C80.0427,22.427 80.0507,15.21 80.0197,7.994 C80.0157,7.114 80.2657,6.806 81.1697,6.854 C82.5537,6.929 83.9447,6.874 85.3327,6.872 C87.5107,6.869 88.7407,8.051 88.7437,10.229 C88.7577,19.268 88.7557,28.307 88.7557,37.345 C88.7557,48.667 88.7557,59.989 88.7467,71.311 C88.7447,73.819 87.6287,74.929 85.1297,74.93 C75.4427,74.934 65.7557,74.94 56.0697,74.913 C55.3097,74.911 54.8597,75.127 54.4157,75.764 C49.6537,82.596 38.8807,82.521 34.2377,75.63 C33.8817,75.101 33.5117,74.921 32.8907,74.922 C23.0807,74.939 13.2717,74.932 3.4617,74.933 C1.2207,74.934 0.0077,73.767 0.0057,71.529 C-0.0033,61.317 0.0017,51.106 0.0017,40.895" id="Fill-15"></path>
            <path d="M73.9492,29.0671 C73.9502,38.0441 73.9362,47.0211 73.9712,55.9981 C73.9742,56.9281 73.7332,57.1941 72.7922,57.1831 C68.4452,57.1301 64.0952,57.0381 59.7742,57.7091 C55.7592,58.3321 51.8662,59.3391 48.2552,61.2471 C47.5282,61.6311 47.3602,61.5371 47.3612,60.7101 C47.3792,44.0521 47.3732,27.3931 47.3932,10.7351 C47.3942,10.3041 47.5662,9.8301 47.7862,9.4501 C50.6862,4.4371 55.1372,1.7901 60.8172,1.3521 C64.9302,1.0351 69.0712,1.0821 73.1982,0.9341 C73.9562,0.9071 73.9502,1.3191 73.9492,1.8581 C73.9432,8.8611 73.9472,15.8641 73.9482,22.8661 C73.9482,24.9331 73.9482,27.0001 73.9492,29.0671" id="Fill-17"></path>
            <path d="M14.8034,28.9775 C14.8034,20.0015 14.8174,11.0255 14.7824,2.0495 C14.7794,1.1425 15.0334,0.9005 15.9194,0.9355 C19.8604,1.0925 23.8154,1.0475 27.7454,1.3375 C33.5714,1.7675 38.1204,4.4455 41.0454,9.6175 C41.2454,9.9715 41.3604,10.4245 41.3614,10.8315 C41.3744,27.3945 41.3704,43.9585 41.3684,60.5225 C41.3684,61.6755 41.3674,61.6735 40.3284,61.1455 C36.3484,59.1225 32.1004,57.9445 27.6804,57.5845 C23.7544,57.2655 19.8014,57.2545 15.8584,57.1785 C15.0034,57.1615 14.7794,56.9265 14.7814,56.0905 C14.8084,47.0525 14.7984,38.0155 14.7984,28.9775 L14.8034,28.9775 Z" id="Fill-19"></path>
        </g>
    </g>
</svg>