<?xml version="1.0" encoding="UTF-8"?>
<svg width="19px" height="17px" viewBox="0 0 19 17" version="1.1" xmlns="http://www.w3.org/2000/svg" xmlns:xlink="http://www.w3.org/1999/xlink">
    <!-- Generator: Sketch 40.1 (33804) - http://www.bohemiancoding.com/sketch -->
    <title>book</title>
    <desc>Created with Sketch.</desc>
    <defs></defs>
    <g id="Page-1" stroke="none" stroke-width="1" fill="none" fill-rule="evenodd">
        <g id="book" transform="translate(0.000000, 0.250000)" fill="#E1C88D">
            <path d="M0.7405,8.0264 C0.7405,5.9944 0.7395,3.9624 0.7415,1.9304 C0.7415,1.4394 0.9695,1.2164 1.4645,1.2144 C1.7525,1.2134 2.0405,1.2224 2.3285,1.2104 C2.4855,1.2034 2.5265,1.2534 2.5265,1.4064 C2.5215,3.5434 2.5235,5.6814 2.5235,7.8184 C2.5235,9.1584 2.5225,10.4994 2.5235,11.8394 C2.5235,12.2444 2.7645,12.4834 3.1745,12.4884 C4.0255,12.5004 4.8775,12.4864 5.7265,12.5254 C6.6695,12.5694 7.5935,12.7384 8.4285,13.2024 C8.7345,13.3724 9.0095,13.6064 9.2765,13.8364 C9.5565,14.0754 9.9205,14.1114 10.1695,13.8564 C10.8925,13.1174 11.8145,12.8064 12.8035,12.6314 C13.8515,12.4454 14.9095,12.4944 15.9665,12.4894 C15.9975,12.4894 16.0285,12.4874 16.0605,12.4894 C16.8405,12.5444 16.9825,12.1994 16.9785,11.5714 C16.9645,9.6384 16.9735,7.7064 16.9735,5.7734 C16.9735,4.3284 16.9745,2.8834 16.9685,1.4384 C16.9675,1.2624 17.0185,1.2004 17.2015,1.2104 C17.4825,1.2254 17.7645,1.2144 18.0455,1.2144 C18.4875,1.2134 18.7375,1.4504 18.7375,1.8864 C18.7405,3.6964 18.7405,5.5054 18.7405,7.3154 C18.7405,9.5824 18.7405,11.8494 18.7385,14.1164 C18.7375,14.6184 18.5115,14.8404 18.0045,14.8414 C16.0405,14.8414 14.0755,14.8434 12.1115,14.8374 C11.9575,14.8374 11.8655,14.8804 11.7755,15.0074 C10.8105,16.3764 8.6255,16.3614 7.6835,14.9814 C7.6115,14.8754 7.5365,14.8394 7.4105,14.8394 C5.4215,14.8424 3.4315,14.8414 1.4425,14.8414 C0.9875,14.8414 0.7415,14.6084 0.7415,14.1604 C0.7395,12.1154 0.7405,10.0704 0.7405,8.0264" id="Fill-7"></path>
            <path d="M15.7373,5.6582 C15.7373,7.4552 15.7343,9.2532 15.7413,11.0502 C15.7423,11.2362 15.6933,11.2902 15.5023,11.2872 C14.6213,11.2772 13.7393,11.2582 12.8623,11.3932 C12.0483,11.5172 11.2593,11.7192 10.5263,12.1012 C10.3793,12.1782 10.3453,12.1592 10.3453,11.9942 C10.3493,8.6582 10.3473,5.3232 10.3513,1.9882 C10.3523,1.9012 10.3873,1.8062 10.4313,1.7302 C11.0193,0.7272 11.9223,0.1962 13.0743,0.1092 C13.9083,0.0452 14.7483,0.0552 15.5853,0.0252 C15.7383,0.0202 15.7373,0.1022 15.7373,0.2102 C15.7363,1.6122 15.7373,3.0142 15.7373,4.4162 L15.7373,5.6582" id="Fill-9"></path>
            <path d="M3.7424,5.6403 C3.7424,3.8433 3.7454,2.0463 3.7384,0.2483 C3.7374,0.0673 3.7894,0.0183 3.9684,0.0253 C4.7684,0.0573 5.5704,0.0483 6.3674,0.1063 C7.5484,0.1923 8.4714,0.7283 9.0644,1.7643 C9.1054,1.8353 9.1284,1.9253 9.1284,2.0073 C9.1314,5.3233 9.1304,8.6403 9.1294,11.9563 C9.1294,12.1873 9.1294,12.1873 8.9194,12.0813 C8.1114,11.6763 7.2504,11.4403 6.3544,11.3683 C5.5574,11.3043 4.7564,11.3023 3.9564,11.2863 C3.7834,11.2833 3.7374,11.2363 3.7384,11.0693 C3.7434,9.2593 3.7414,7.4503 3.7414,5.6403 L3.7424,5.6403 Z" id="Fill-11"></path>
        </g>
    </g>
</svg>