<?xml version="1.0" encoding="UTF-8"?>
<svg width="29px" height="29px" viewBox="0 0 29 29" version="1.1" xmlns="http://www.w3.org/2000/svg" xmlns:xlink="http://www.w3.org/1999/xlink">
    <!-- Generator: Sketch 40.1 (33804) - http://www.bohemiancoding.com/sketch -->
    <title>close</title>
    <desc>Created with Sketch.</desc>
    <defs></defs>
    <g id="Page-1" stroke="none" stroke-width="1" fill="none" fill-rule="evenodd">
        <g id="close" fill="#E1C88D">
            <path d="M7.2141,19.5001 C7.7161,20.4571 8.3461,21.1731 9.3771,21.5341 C10.2051,20.7061 11.0331,19.8551 11.8871,19.0311 C12.7321,18.2151 13.4881,17.3021 14.4481,16.5681 C16.1261,18.2471 17.7521,19.8721 19.3791,21.4951 C19.4021,21.5181 19.4591,21.5071 19.5001,21.5081 C19.5431,21.5101 19.5861,21.5091 19.4111,21.5091 C20.1631,20.7571 20.8061,20.1131 21.4481,19.4721 C20.4511,18.4751 19.3731,17.4401 18.3491,16.3561 C17.7331,15.7051 17.2001,14.9751 16.5201,14.1471 C18.2171,12.4501 19.8651,10.8011 21.4541,9.2131 C20.9181,8.6771 20.3291,8.0881 19.6671,7.4261 L19.3941,7.4261 C17.9411,8.7921 16.4721,10.1771 14.9981,11.5571 C14.7931,11.7491 14.5691,11.9191 14.3851,12.0731 C12.6991,10.4791 11.0761,8.9451 9.4771,7.4351 L8.9171,7.4351 C8.9771,7.4921 9.0371,7.5491 9.0961,7.6061 C8.4801,8.1701 7.8641,8.7331 7.1151,9.4171 C7.3601,9.6051 7.6521,9.7841 7.8901,10.0191 C9.1651,11.2761 10.4251,12.5501 11.6961,13.8121 C11.9401,14.0551 12.2001,14.2751 12.1021,14.6121 L7.2141,19.5001 M13.1151,0.0001 L15.6761,0.0001 C15.7861,0.0851 15.8901,0.2331 16.0081,0.2451 C16.4671,0.2901 16.9701,0.1821 17.3841,0.3311 C18.2361,0.6381 19.1941,0.6751 19.9331,1.2801 C21.2791,1.4661 22.2911,2.3341 23.2411,3.1461 C24.5311,4.2471 25.7651,5.4411 26.6321,6.9641 C27.5711,8.6131 28.3561,10.2901 28.4891,12.2151 C28.4971,12.3311 28.6491,12.4371 28.7351,12.5471 L28.7351,16.3881 C28.6491,16.4981 28.4881,16.6101 28.4911,16.7181 C28.5121,17.4251 28.2601,18.0691 28.0601,18.7211 C27.4651,20.6571 26.4471,22.3841 25.1511,23.9061 C23.6271,25.6961 21.7121,27.0121 19.4831,27.8031 C17.9921,28.3331 16.4731,28.7781 14.8541,28.6841 C14.2581,28.6501 13.6561,28.7181 13.0631,28.6681 C12.3341,28.6081 11.5621,28.6011 10.8971,28.3431 C9.5761,27.8321 8.2071,27.4791 6.9761,26.6671 C5.4061,25.6331 4.0091,24.4911 2.9011,22.9661 C2.1681,21.9561 1.6571,20.8371 1.0861,19.7461 C0.4861,18.6011 0.2611,17.3071 0.1071,16.0721 C-0.1239,14.2281 0.0141,12.3431 0.5701,10.5321 C1.0021,9.1281 1.5741,7.7821 2.3651,6.5421 C3.0711,5.4351 4.0811,4.5951 4.9741,3.6521 C5.7711,2.8101 6.7311,2.1761 7.7481,1.6871 C9.3321,0.9251 10.9481,0.1791 12.7851,0.2441 C12.8921,0.2481 13.0051,0.0851 13.1151,0.0001"></path>
        </g>
    </g>
</svg>