<?xml version="1.0" encoding="UTF-8"?>
<svg width="22px" height="16px" viewBox="0 0 22 16" version="1.1" xmlns="http://www.w3.org/2000/svg" xmlns:xlink="http://www.w3.org/1999/xlink">
    <!-- Generator: Sketch 40.1 (33804) - http://www.bohemiancoding.com/sketch -->
    <title>map_xs</title>
    <desc>Created with Sketch.</desc>
    <defs></defs>
    <g id="Page-1" stroke="none" stroke-width="1" fill="none" fill-rule="evenodd">
        <path d="M10.9862,1.8901 C10.2562,1.8831 9.6162,2.5071 9.6022,3.2381 C9.5892,3.9841 10.2422,4.6421 10.9882,4.6321 C11.7212,4.6231 12.3482,3.9911 12.3492,3.2601 C12.3492,2.5311 11.7182,1.8971 10.9862,1.8901 M10.9772,11.7511 C10.5282,10.7381 10.1382,9.8601 9.7542,8.9931 L5.5442,8.9931 C4.9122,10.6151 4.2822,12.2271 3.6342,13.8871 L18.3192,13.8871 C17.6642,12.2121 17.0332,10.5991 16.4042,8.9901 L12.1962,8.9901 C11.8092,9.8671 11.4252,10.7371 10.9772,11.7511 M4.2732,7.0901 L9.0022,7.0901 C8.6532,6.1081 8.3102,5.1921 8.0002,4.2641 C7.4512,2.6201 8.2162,0.8891 9.7802,0.2841 C11.0012,-0.1889 12.1542,-0.0079 13.1172,0.8931 C14.0602,1.7751 14.3762,2.8811 13.9842,4.1291 C13.6812,5.0951 13.3212,6.0421 12.9612,7.0681 L17.6682,7.0681 C18.8072,9.9771 19.9262,12.8361 21.0692,15.7561 L0.8832,15.7561 C2.0192,12.8521 3.1402,9.9861 4.2732,7.0901" id="map_xs" fill="#E1C88D"></path>
    </g>
</svg>