<?xml version="1.0" encoding="UTF-8"?>
<svg width="93px" height="81px" viewBox="0 0 93 81" version="1.1" xmlns="http://www.w3.org/2000/svg" xmlns:xlink="http://www.w3.org/1999/xlink">
    <!-- Generator: Sketch 40.1 (33804) - http://www.bohemiancoding.com/sketch -->
    <title>map_big_white</title>
    <desc>Created with Sketch.</desc>
    <defs></defs>
    <g id="Page-1" stroke="none" stroke-width="1" fill="none" fill-rule="evenodd">
        <g id="map_big_white" fill="#FFFFFF">
            <path d="M0.8007,79.9614 C0.9207,79.6964 1.0667,79.4404 1.1587,79.1654 C6.6617,62.6664 12.1667,46.1684 17.6447,29.6614 C17.8887,28.9284 18.1847,28.6514 18.9987,28.6624 C22.9107,28.7144 26.8247,28.6964 30.7377,28.6724 C31.2847,28.6694 31.5997,28.8134 31.8467,29.3204 C32.6537,30.9774 33.5107,32.6104 34.4067,34.3674 L22.2027,34.3674 C21.8557,35.4034 21.5267,36.3834 21.1987,37.3624 C19.7327,41.7484 18.2967,46.1444 16.7757,50.5104 C16.4487,51.4524 16.5867,52.0144 17.4617,52.4384 C17.6957,52.5514 17.8897,52.7444 18.1537,52.9384 C17.1987,54.4604 16.2827,55.9564 15.3147,57.4184 C15.1987,57.5934 14.8067,57.5854 14.4137,57.6994 C12.5847,63.1904 10.7017,68.8404 8.7987,74.5534 L84.5957,74.5534 C82.8187,69.2164 81.0617,63.9404 79.3397,58.7714 C78.9727,58.6834 78.5987,58.7084 78.4447,58.5374 C77.4537,57.4304 76.5107,56.2794 75.5077,55.0914 C75.9847,54.5644 76.5287,54.0154 77.0037,53.4134 C77.1767,53.1954 77.3257,52.8024 77.2487,52.5674 C75.2647,46.5314 73.2497,40.5054 71.2237,34.4264 L58.9727,34.4264 C59.7937,32.8104 60.6177,31.3354 61.2957,29.7964 C61.6947,28.8884 62.2287,28.6424 63.1947,28.6594 C66.9577,28.7234 70.7227,28.7104 74.4867,28.6644 C75.2287,28.6554 75.5017,28.9044 75.7247,29.5744 C81.2057,46.0804 86.7097,62.5794 92.2127,79.0784 C92.3137,79.3814 92.4667,79.6674 92.5947,79.9614 C92.5657,80.0814 92.5547,80.2934 92.5027,80.3034 C92.3017,80.3434 92.0877,80.3204 91.8787,80.3204 C61.7587,80.3204 31.6377,80.3214 1.5167,80.3014 C1.2917,80.3014 0.7447,80.6694 0.8007,79.9614" id="Fill-1"></path>
            <path d="M46.7592,5.767 C41.9912,5.757 38.1202,9.589 38.1142,14.326 C38.1092,19.033 41.9522,22.908 46.6362,22.918 C51.3712,22.929 55.2562,19.12 55.2732,14.449 C55.2922,9.661 51.4832,5.777 46.7592,5.767 L46.7592,5.767 Z M48.6702,0 C49.3232,0.174 49.9772,0.341 50.6282,0.523 C59.1862,2.917 63.5922,12.621 59.6252,20.576 C55.4752,28.898 51.1942,37.156 46.9682,45.441 C46.9052,45.564 46.8212,45.677 46.6772,45.905 C45.8532,44.3 45.0802,42.802 44.3142,41.3 C40.8592,34.529 37.3772,27.772 33.9592,20.982 C29.5002,12.126 34.5982,1.943 44.3362,0.168 C44.4722,0.143 44.5962,0.057 44.7262,0 L48.6702,0 Z" id="Fill-3"></path>
            <path d="M21.1133,60.6732 C21.6993,58.6362 22.2143,56.8452 22.7263,55.0672 C24.4653,55.3212 26.1323,55.5652 27.7853,55.8072 L27.7853,61.6342 C25.5413,61.3112 23.4143,61.0042 21.1133,60.6732" id="Fill-5"></path>
            <path d="M43.2431,51.2012 C45.0131,50.1682 46.7051,49.1822 48.4871,48.1422 C49.3951,49.9192 50.2541,51.6032 51.1231,53.3032 C49.4111,54.3042 47.7701,55.2642 46.0691,56.2582 C45.1241,54.5672 44.2111,52.9342 43.2431,51.2012" id="Fill-7"></path>
            <path d="M71.231,52.0937 C69.601,51.5187 68.063,50.9747 66.372,50.3787 C66.711,48.6317 67.07,46.7807 67.478,44.6767 C69.658,45.4347 71.738,46.1567 73.902,46.9087 C72.941,48.7747 72.085,50.4367 71.231,52.0937" id="Fill-9"></path>
            <path d="M60.8138,44.3364 C60.9798,46.4224 61.1268,48.2574 61.2758,50.1214 C59.5228,50.4824 57.8408,50.8274 56.0728,51.1914 C55.5268,49.4624 54.9638,47.6814 54.3258,45.6634 C56.4808,45.2224 58.5828,44.7924 60.8138,44.3364" id="Fill-11"></path>
            <path d="M33.0797,55.2651 C34.8207,54.7301 36.4937,54.2161 38.2907,53.6641 C38.9757,55.3611 39.6817,57.1151 40.4587,59.0411 C38.3987,59.6731 36.3757,60.2951 34.2707,60.9411 C33.8497,58.9331 33.4717,57.1341 33.0797,55.2651" id="Fill-13"></path>
        </g>
    </g>
</svg>