<?xml version="1.0" encoding="UTF-8"?>
<svg width="28px" height="23px" viewBox="0 0 28 23" version="1.1" xmlns="http://www.w3.org/2000/svg" xmlns:xlink="http://www.w3.org/1999/xlink">
    <!-- Generator: Sketch 40.1 (33804) - http://www.bohemiancoding.com/sketch -->
    <title>stand_big</title>
    <desc>Created with Sketch.</desc>
    <defs>
        <polygon id="path-1" points="0 0.787183993 0 5.99820064 5.21085171 5.99820064 5.21085171 0.787183993 4.06575815e-20 0.787183993"></polygon>
    </defs>
    <g id="Page-1" stroke="none" stroke-width="1" fill="none" fill-rule="evenodd">
        <g>
            <path d="M27.8286,3.7473 C27.8126,3.7783 27.7896,3.8083 27.7806,3.8423 C27.5426,4.7193 26.9036,5.2123 25.9976,5.2123 L18.5506,5.2123 C15.8696,5.2123 13.1876,5.2143 10.5066,5.2103 C9.5186,5.2083 8.7546,4.5133 8.7006,3.5823 C8.6416,2.5793 9.4286,1.7443 10.4546,1.7413 C12.4836,1.7353 14.5126,1.7383 16.5416,1.7383 C19.6756,1.7383 22.8106,1.7383 25.9446,1.7393 C26.9206,1.7393 27.5186,2.1933 27.7876,3.1353 C27.7946,3.1593 27.8146,3.1813 27.8286,3.2033 L27.8286,3.7473 Z" id="Fill-1" fill="#E1C88D"></path>
            <path d="M27.8286,12.4448 C27.8126,12.4758 27.7896,12.5058 27.7806,12.5398 C27.5426,13.4168 26.9036,13.9098 25.9966,13.9098 L18.5226,13.9098 C15.8326,13.9098 13.1416,13.9118 10.4506,13.9068 C9.5796,13.9058 8.8936,13.3248 8.7246,12.4678 C8.5726,11.6978 9.0096,10.8838 9.7676,10.5778 C9.9806,10.4918 10.2236,10.4428 10.4526,10.4428 C15.6616,10.4348 20.8716,10.4358 26.0806,10.4378 C26.8686,10.4378 27.5356,10.9468 27.7586,11.6998 C27.7796,11.7678 27.8056,11.8338 27.8286,11.9008 L27.8286,12.4448 Z" id="Fill-3" fill="#E1C88D"></path>
            <path d="M27.8286,21.1423 C27.8126,21.1733 27.7896,21.2033 27.7806,21.2373 C27.5426,22.1143 26.9036,22.6073 25.9966,22.6073 L18.5226,22.6073 C15.8326,22.6073 13.1416,22.6093 10.4506,22.6043 C9.5796,22.6033 8.8936,22.0223 8.7246,21.1653 C8.5726,20.3953 9.0096,19.5813 9.7676,19.2753 C9.9806,19.1893 10.2236,19.1403 10.4526,19.1403 C15.6616,19.1323 20.8716,19.1333 26.0806,19.1353 C26.8686,19.1353 27.5356,19.6443 27.7586,20.3973 C27.7796,20.4653 27.8056,20.5313 27.8286,20.5983 L27.8286,21.1423 Z" id="Fill-5" fill="#E1C88D"></path>
            <path d="M2.6172,1.06581427e-14 C4.0522,0.004 5.2202,1.185 5.2112,2.624 C5.2022,4.046 4.0312,5.21 2.6062,5.211 C1.1702,5.212 -0.0018,4.038 0.0002,2.599 C0.0022,1.163 1.1772,-0.004 2.6172,1.06581427e-14" id="Fill-7" fill="#E1C88D"></path>
            <path d="M2.5831,13.9087 C1.1491,13.8987 -0.0109,12.7157 0.0001,11.2737 C0.0111,9.8417 1.1971,8.6847 2.6401,8.6977 C4.0601,8.7107 5.2181,9.8897 5.2111,11.3177 C5.2041,12.7507 4.0201,13.9187 2.5831,13.9087" id="Fill-9" fill="#E1C88D"></path>
            <g id="Group-13" transform="translate(0.000000, 16.607800)">
                <mask id="mask-2" fill="white">
                    <use xlink:href="#path-1"></use>
                </mask>
                <g id="Clip-12"></g>
                <path d="M2.6178,0.7872 C4.0528,0.7922 5.2198,1.9732 5.2108,3.4112 C5.2028,4.8342 4.0298,5.9982 2.6058,5.9982 C1.1688,5.9992 -0.0022,4.8242 -0.0002,3.3862 C0.0028,1.9492 1.1778,0.7822 2.6178,0.7872" id="Fill-11" fill="#E1C88D" mask="url(#mask-2)"></path>
            </g>
        </g>
    </g>
</svg>