<?xml version="1.0" encoding="utf-8"?>
<!-- Generator: Adobe Illustrator 19.2.1, SVG Export Plug-In . SVG Version: 6.00 Build 0)  -->
<svg version="1.1" id="Layer_1" xmlns="http://www.w3.org/2000/svg" xmlns:xlink="http://www.w3.org/1999/xlink" x="0px" y="0px"
	 viewBox="0 0 166 44.8" style="enable-background:new 0 0 166 44.8;" xml:space="preserve">
<style type="text/css">
	.st0{fill:#E5CF98;}
</style>
<g>
	<g>
		<path class="st0" d="M6.5,0h25.2c0,0-0.9,4.8-1.3,6.8c-0.4,1.9-2.1,2.1-2.9,2.1c-0.8-0.1-5.2-0.4-5.2-0.4L22.7,7l-6.2,0l-3.8,18.5
			c0,0,1.8,0.2,1.4,2c-0.3,1.5-1,5.3-1,5.3H0l1-3.5l1.9-2.1c0,0,3.2-16.5,3.7-18.4C6.9,6.9,5.2,7,5.2,7L6.5,0z"/>
		<path class="st0" d="M39.1,22c-0.3,6.6-5.5,11.3-12.7,11.3c-6.1,0-9.3-3.3-9-8.1c0.3-6.4,5.6-11.3,12.8-11.3
			C36.3,13.8,39.3,17.2,39.1,22z M26,24.3c-0.1,1.4,0.5,2,1.8,2c1.5,0,2.8-1.4,2.9-3.4c0.1-1.3-0.5-2.1-1.9-2.1
			C27.1,20.8,26.1,22.6,26,24.3z"/>
		<path class="st0" d="M42.8,22.2c0.3-1.8-1.1-2-1.1-2l1-5.4c0,0,5.2-0.6,7.6-0.8c2.4-0.2,1.5,2.4,1.5,2.4h0.2
			c1.9-2.1,4.6-2.5,6-2.5c5.2,0,7.3,3.7,7.1,8.1c-0.4,7.5-5.6,11.3-11.2,11.3c-1.1,0-3-0.2-4.1-1.3l-0.3,0.2c0,0-1.7,7.9-2,9.3
			c-0.5,1.9-3.1,3.3-4.9,3.3c-1.8,0-5.7-0.4-5.7-0.4l1.2-4.2l1.4-1.6C39.4,38.6,42.6,23.4,42.8,22.2z M56.4,23.1
			c0.1-1.4-0.6-2.2-1.8-2.2c-1.4,0-2.9,1.4-3,3.4c-0.1,1.3,0.5,2.3,1.9,2.3C55,26.6,56.3,25,56.4,23.1z"/>
		<path class="st0" d="M77.3,20.5l0.3-0.3c1.5-1.1,3.6-1.8,5.6-1.8c3.4,0,6.6,1.8,6.4,6c-0.2,4.6-4.7,8.9-12.1,8.9
			c-5.5,0-10.5-2.3-9.1-8.7c0,0,0.3-1.3,0.6-2.5c0.3-1.3-1.1-1.7-1.1-1.7l1.1-5.5c0,0,6.5-0.7,8.3-0.9c1.9-0.2,2,1.2,1.7,2
			C78.9,16.3,77.3,20.5,77.3,20.5z M76.7,26.2c0,0.9,0.5,1.4,1.7,1.4c1.7,0,2.8-1,2.8-2.1c0-0.8-0.5-1.4-1.8-1.4
			C77.9,24,76.7,25,76.7,26.2z"/>
		<path class="st0" d="M118,26.7c0,0,0.8-3.9,1-4.9c0.2-1.3-1.2-1.7-1.2-1.7l1.1-5.3c0,0,6.4-0.7,8.5-0.8c2-0.2,1.4,2,1.4,2
			l-1.7,8.9c-0.2,0.8,0,1.6,0.9,1.6c0.9,0,1.6-0.9,1.8-2.4l1.8-9.5h8.7c0,0-1.7,8.8-2,10.2c-0.3,1.4,1.3,0.9,1.3,0.9l1.3,5.1
			c-2.1,1.6-5.1,2.6-7.8,2.6c-1.8,0-3.7-0.8-3.6-3.5l-0.2-0.1c-2.1,3.3-5.4,3.6-6.4,3.6C118.5,33.2,117.1,30.9,118,26.7z"/>
		<path class="st0" d="M143.3,26.7c0,0,0.8-3.9,1-4.9c0.2-1.3-1.2-1.7-1.2-1.7l1.1-5.3c0,0,6.4-0.7,8.5-0.8c2-0.2,1.4,2,1.4,2
			l-1.7,8.9c-0.2,0.8,0,1.6,0.9,1.6c0.9,0,1.6-0.9,1.8-2.4l1.8-9.5h8.7c0,0-1.7,8.8-2,10.2c-0.3,1.4,1.3,0.9,1.3,0.9l1.3,5.1
			c-2.1,1.6-5.1,2.6-7.8,2.6c-1.8,0-3.7-0.8-3.6-3.5l-0.2-0.1c-2.1,3.3-5.4,3.6-6.4,3.6C143.7,33.2,142.4,30.9,143.3,26.7z"/>
		<path class="st0" d="M150.9,10.9l-1-3c0,0,6.9-6,7.6-6.6c1.1-1,2-0.1,2.2,0.2c0.2,0.3,2.2,3.7,2.7,4.5
			C160.4,11.3,150.9,10.9,150.9,10.9z"/>
		<path class="st0" d="M110.8,26.3c0,0-0.4-0.9-0.8-2.1c-0.5-1.3-1.2-1.2-1.2-1.2c0.5-0.9,1.5-1.8,2-2.3c0,0,2.2,0.5,3-1.1
			c0.5-0.9,2.5-4.6,2.5-4.6c-1-0.6-2.7-1.1-4.3-1.1c-2.8,0-5.3,1.1-8.6,6.6c0,0,0,0.1-0.1,0.1l-1.1,0.2l0.9-4.9c0,0,0.5-1.9-1.4-1.8
			c-0.8,0-8.4,0.7-8.4,0.7l-1.1,5.6c0,0,1.4,0.4,1.1,1.7c-0.2,1.3-2.1,10.7-2.1,10.7h8.7l1.4-7.3l1-0.2l1.4,4.7
			c0.9,2.3,2.2,3.2,4.5,3.2c2.2,0,4.5-1,6.2-2.8l-1.9-3.6C112.1,26.1,111.3,26.1,110.8,26.3z"/>
	</g>
</g>
</svg>
